<?xml version="1.0" encoding="utf-8" standalone="no"?>
<!DOCTYPE svg PUBLIC "-//W3C//DTD SVG 1.1//EN"
  "http://www.w3.org/Graphics/SVG/1.1/DTD/svg11.dtd">
<!-- Created with matplotlib (http://matplotlib.org/) -->
<svg height="288pt" version="1.1" viewBox="0 0 432 288" width="432pt" xmlns="http://www.w3.org/2000/svg" xmlns:xlink="http://www.w3.org/1999/xlink">
 <defs>
  <style type="text/css">
*{stroke-linecap:butt;stroke-linejoin:round;}
  </style>
 </defs>
 <g id="figure_1">
  <g id="patch_1">
   <path d="M 0 288 
L 432 288 
L 432 0 
L 0 0 
z
" style="fill:#ffffff;"/>
  </g>
  <g id="axes_1">
   <g id="patch_2">
    <path d="M 54 252 
L 388.8 252 
L 388.8 34.56 
L 54 34.56 
z
" style="fill:#e5e5e5;"/>
   </g>
   <g id="matplotlib.axis_1">
    <g id="xtick_1">
     <g id="line2d_1">
      <path clip-path="url(#p5757c06866)" d="M 58.517898 252 
L 58.517898 34.56 
" style="fill:none;stroke:#ffffff;stroke-linecap:square;stroke-width:0.8;"/>
     </g>
     <g id="line2d_2">
      <defs>
       <path d="M 0 0 
L 0 3.5 
" id="ma40b3b756d" style="stroke:#555555;stroke-width:0.8;"/>
      </defs>
      <g>
       <use style="fill:#555555;stroke:#555555;stroke-width:0.8;" x="58.517898" xlink:href="#ma40b3b756d" y="252"/>
      </g>
     </g>
     <g id="text_1">
      <!-- 1750 -->
      <defs>
       <path d="M 12.40625 8.296875 
L 28.515625 8.296875 
L 28.515625 63.921875 
L 10.984375 60.40625 
L 10.984375 69.390625 
L 28.421875 72.90625 
L 38.28125 72.90625 
L 38.28125 8.296875 
L 54.390625 8.296875 
L 54.390625 0 
L 12.40625 0 
z
" id="DejaVuSans-31"/>
       <path d="M 8.203125 72.90625 
L 55.078125 72.90625 
L 55.078125 68.703125 
L 28.609375 0 
L 18.3125 0 
L 43.21875 64.59375 
L 8.203125 64.59375 
z
" id="DejaVuSans-37"/>
       <path d="M 10.796875 72.90625 
L 49.515625 72.90625 
L 49.515625 64.59375 
L 19.828125 64.59375 
L 19.828125 46.734375 
Q 21.96875 47.46875 24.109375 47.828125 
Q 26.265625 48.1875 28.421875 48.1875 
Q 40.625 48.1875 47.75 41.5 
Q 54.890625 34.8125 54.890625 23.390625 
Q 54.890625 11.625 47.5625 5.09375 
Q 40.234375 -1.421875 26.90625 -1.421875 
Q 22.3125 -1.421875 17.546875 -0.640625 
Q 12.796875 0.140625 7.71875 1.703125 
L 7.71875 11.625 
Q 12.109375 9.234375 16.796875 8.0625 
Q 21.484375 6.890625 26.703125 6.890625 
Q 35.15625 6.890625 40.078125 11.328125 
Q 45.015625 15.765625 45.015625 23.390625 
Q 45.015625 31 40.078125 35.4375 
Q 35.15625 39.890625 26.703125 39.890625 
Q 22.75 39.890625 18.8125 39.015625 
Q 14.890625 38.140625 10.796875 36.28125 
z
" id="DejaVuSans-35"/>
       <path d="M 31.78125 66.40625 
Q 24.171875 66.40625 20.328125 58.90625 
Q 16.5 51.421875 16.5 36.375 
Q 16.5 21.390625 20.328125 13.890625 
Q 24.171875 6.390625 31.78125 6.390625 
Q 39.453125 6.390625 43.28125 13.890625 
Q 47.125 21.390625 47.125 36.375 
Q 47.125 51.421875 43.28125 58.90625 
Q 39.453125 66.40625 31.78125 66.40625 
z
M 31.78125 74.21875 
Q 44.046875 74.21875 50.515625 64.515625 
Q 56.984375 54.828125 56.984375 36.375 
Q 56.984375 17.96875 50.515625 8.265625 
Q 44.046875 -1.421875 31.78125 -1.421875 
Q 19.53125 -1.421875 13.0625 8.265625 
Q 6.59375 17.96875 6.59375 36.375 
Q 6.59375 54.828125 13.0625 64.515625 
Q 19.53125 74.21875 31.78125 74.21875 
z
" id="DejaVuSans-30"/>
      </defs>
      <g style="fill:#555555;" transform="translate(45.792898 266.598437)scale(0.1 -0.1)">
       <use xlink:href="#DejaVuSans-31"/>
       <use x="63.623047" xlink:href="#DejaVuSans-37"/>
       <use x="127.246094" xlink:href="#DejaVuSans-35"/>
       <use x="190.869141" xlink:href="#DejaVuSans-30"/>
      </g>
     </g>
    </g>
    <g id="xtick_2">
     <g id="line2d_3">
      <path clip-path="url(#p5757c06866)" d="M 117.96392 252 
L 117.96392 34.56 
" style="fill:none;stroke:#ffffff;stroke-linecap:square;stroke-width:0.8;"/>
     </g>
     <g id="line2d_4">
      <g>
       <use style="fill:#555555;stroke:#555555;stroke-width:0.8;" x="117.96392" xlink:href="#ma40b3b756d" y="252"/>
      </g>
     </g>
     <g id="text_2">
      <!-- 1800 -->
      <defs>
       <path d="M 31.78125 34.625 
Q 24.75 34.625 20.71875 30.859375 
Q 16.703125 27.09375 16.703125 20.515625 
Q 16.703125 13.921875 20.71875 10.15625 
Q 24.75 6.390625 31.78125 6.390625 
Q 38.8125 6.390625 42.859375 10.171875 
Q 46.921875 13.96875 46.921875 20.515625 
Q 46.921875 27.09375 42.890625 30.859375 
Q 38.875 34.625 31.78125 34.625 
z
M 21.921875 38.8125 
Q 15.578125 40.375 12.03125 44.71875 
Q 8.5 49.078125 8.5 55.328125 
Q 8.5 64.0625 14.71875 69.140625 
Q 20.953125 74.21875 31.78125 74.21875 
Q 42.671875 74.21875 48.875 69.140625 
Q 55.078125 64.0625 55.078125 55.328125 
Q 55.078125 49.078125 51.53125 44.71875 
Q 48 40.375 41.703125 38.8125 
Q 48.828125 37.15625 52.796875 32.3125 
Q 56.78125 27.484375 56.78125 20.515625 
Q 56.78125 9.90625 50.3125 4.234375 
Q 43.84375 -1.421875 31.78125 -1.421875 
Q 19.734375 -1.421875 13.25 4.234375 
Q 6.78125 9.90625 6.78125 20.515625 
Q 6.78125 27.484375 10.78125 32.3125 
Q 14.796875 37.15625 21.921875 38.8125 
z
M 18.3125 54.390625 
Q 18.3125 48.734375 21.84375 45.5625 
Q 25.390625 42.390625 31.78125 42.390625 
Q 38.140625 42.390625 41.71875 45.5625 
Q 45.3125 48.734375 45.3125 54.390625 
Q 45.3125 60.0625 41.71875 63.234375 
Q 38.140625 66.40625 31.78125 66.40625 
Q 25.390625 66.40625 21.84375 63.234375 
Q 18.3125 60.0625 18.3125 54.390625 
z
" id="DejaVuSans-38"/>
      </defs>
      <g style="fill:#555555;" transform="translate(105.23892 266.598437)scale(0.1 -0.1)">
       <use xlink:href="#DejaVuSans-31"/>
       <use x="63.623047" xlink:href="#DejaVuSans-38"/>
       <use x="127.246094" xlink:href="#DejaVuSans-30"/>
       <use x="190.869141" xlink:href="#DejaVuSans-30"/>
      </g>
     </g>
    </g>
    <g id="xtick_3">
     <g id="line2d_5">
      <path clip-path="url(#p5757c06866)" d="M 177.409943 252 
L 177.409943 34.56 
" style="fill:none;stroke:#ffffff;stroke-linecap:square;stroke-width:0.8;"/>
     </g>
     <g id="line2d_6">
      <g>
       <use style="fill:#555555;stroke:#555555;stroke-width:0.8;" x="177.409943" xlink:href="#ma40b3b756d" y="252"/>
      </g>
     </g>
     <g id="text_3">
      <!-- 1850 -->
      <g style="fill:#555555;" transform="translate(164.684943 266.598437)scale(0.1 -0.1)">
       <use xlink:href="#DejaVuSans-31"/>
       <use x="63.623047" xlink:href="#DejaVuSans-38"/>
       <use x="127.246094" xlink:href="#DejaVuSans-35"/>
       <use x="190.869141" xlink:href="#DejaVuSans-30"/>
      </g>
     </g>
    </g>
    <g id="xtick_4">
     <g id="line2d_7">
      <path clip-path="url(#p5757c06866)" d="M 236.855966 252 
L 236.855966 34.56 
" style="fill:none;stroke:#ffffff;stroke-linecap:square;stroke-width:0.8;"/>
     </g>
     <g id="line2d_8">
      <g>
       <use style="fill:#555555;stroke:#555555;stroke-width:0.8;" x="236.855966" xlink:href="#ma40b3b756d" y="252"/>
      </g>
     </g>
     <g id="text_4">
      <!-- 1900 -->
      <defs>
       <path d="M 10.984375 1.515625 
L 10.984375 10.5 
Q 14.703125 8.734375 18.5 7.8125 
Q 22.3125 6.890625 25.984375 6.890625 
Q 35.75 6.890625 40.890625 13.453125 
Q 46.046875 20.015625 46.78125 33.40625 
Q 43.953125 29.203125 39.59375 26.953125 
Q 35.25 24.703125 29.984375 24.703125 
Q 19.046875 24.703125 12.671875 31.3125 
Q 6.296875 37.9375 6.296875 49.421875 
Q 6.296875 60.640625 12.9375 67.421875 
Q 19.578125 74.21875 30.609375 74.21875 
Q 43.265625 74.21875 49.921875 64.515625 
Q 56.59375 54.828125 56.59375 36.375 
Q 56.59375 19.140625 48.40625 8.859375 
Q 40.234375 -1.421875 26.421875 -1.421875 
Q 22.703125 -1.421875 18.890625 -0.6875 
Q 15.09375 0.046875 10.984375 1.515625 
z
M 30.609375 32.421875 
Q 37.25 32.421875 41.125 36.953125 
Q 45.015625 41.5 45.015625 49.421875 
Q 45.015625 57.28125 41.125 61.84375 
Q 37.25 66.40625 30.609375 66.40625 
Q 23.96875 66.40625 20.09375 61.84375 
Q 16.21875 57.28125 16.21875 49.421875 
Q 16.21875 41.5 20.09375 36.953125 
Q 23.96875 32.421875 30.609375 32.421875 
z
" id="DejaVuSans-39"/>
      </defs>
      <g style="fill:#555555;" transform="translate(224.130966 266.598437)scale(0.1 -0.1)">
       <use xlink:href="#DejaVuSans-31"/>
       <use x="63.623047" xlink:href="#DejaVuSans-39"/>
       <use x="127.246094" xlink:href="#DejaVuSans-30"/>
       <use x="190.869141" xlink:href="#DejaVuSans-30"/>
      </g>
     </g>
    </g>
    <g id="xtick_5">
     <g id="line2d_9">
      <path clip-path="url(#p5757c06866)" d="M 296.301989 252 
L 296.301989 34.56 
" style="fill:none;stroke:#ffffff;stroke-linecap:square;stroke-width:0.8;"/>
     </g>
     <g id="line2d_10">
      <g>
       <use style="fill:#555555;stroke:#555555;stroke-width:0.8;" x="296.301989" xlink:href="#ma40b3b756d" y="252"/>
      </g>
     </g>
     <g id="text_5">
      <!-- 1950 -->
      <g style="fill:#555555;" transform="translate(283.576989 266.598437)scale(0.1 -0.1)">
       <use xlink:href="#DejaVuSans-31"/>
       <use x="63.623047" xlink:href="#DejaVuSans-39"/>
       <use x="127.246094" xlink:href="#DejaVuSans-35"/>
       <use x="190.869141" xlink:href="#DejaVuSans-30"/>
      </g>
     </g>
    </g>
    <g id="xtick_6">
     <g id="line2d_11">
      <path clip-path="url(#p5757c06866)" d="M 355.748011 252 
L 355.748011 34.56 
" style="fill:none;stroke:#ffffff;stroke-linecap:square;stroke-width:0.8;"/>
     </g>
     <g id="line2d_12">
      <g>
       <use style="fill:#555555;stroke:#555555;stroke-width:0.8;" x="355.748011" xlink:href="#ma40b3b756d" y="252"/>
      </g>
     </g>
     <g id="text_6">
      <!-- 2000 -->
      <defs>
       <path d="M 19.1875 8.296875 
L 53.609375 8.296875 
L 53.609375 0 
L 7.328125 0 
L 7.328125 8.296875 
Q 12.9375 14.109375 22.625 23.890625 
Q 32.328125 33.6875 34.8125 36.53125 
Q 39.546875 41.84375 41.421875 45.53125 
Q 43.3125 49.21875 43.3125 52.78125 
Q 43.3125 58.59375 39.234375 62.25 
Q 35.15625 65.921875 28.609375 65.921875 
Q 23.96875 65.921875 18.8125 64.3125 
Q 13.671875 62.703125 7.8125 59.421875 
L 7.8125 69.390625 
Q 13.765625 71.78125 18.9375 73 
Q 24.125 74.21875 28.421875 74.21875 
Q 39.75 74.21875 46.484375 68.546875 
Q 53.21875 62.890625 53.21875 53.421875 
Q 53.21875 48.921875 51.53125 44.890625 
Q 49.859375 40.875 45.40625 35.40625 
Q 44.1875 33.984375 37.640625 27.21875 
Q 31.109375 20.453125 19.1875 8.296875 
z
" id="DejaVuSans-32"/>
      </defs>
      <g style="fill:#555555;" transform="translate(343.023011 266.598437)scale(0.1 -0.1)">
       <use xlink:href="#DejaVuSans-32"/>
       <use x="63.623047" xlink:href="#DejaVuSans-30"/>
       <use x="127.246094" xlink:href="#DejaVuSans-30"/>
       <use x="190.869141" xlink:href="#DejaVuSans-30"/>
      </g>
     </g>
    </g>
    <g id="text_7">
     <!-- Year -->
     <defs>
      <path d="M -0.203125 72.90625 
L 10.40625 72.90625 
L 30.609375 42.921875 
L 50.6875 72.90625 
L 61.28125 72.90625 
L 35.5 34.71875 
L 35.5 0 
L 25.59375 0 
L 25.59375 34.71875 
z
" id="DejaVuSans-59"/>
      <path d="M 56.203125 29.59375 
L 56.203125 25.203125 
L 14.890625 25.203125 
Q 15.484375 15.921875 20.484375 11.0625 
Q 25.484375 6.203125 34.421875 6.203125 
Q 39.59375 6.203125 44.453125 7.46875 
Q 49.3125 8.734375 54.109375 11.28125 
L 54.109375 2.78125 
Q 49.265625 0.734375 44.1875 -0.34375 
Q 39.109375 -1.421875 33.890625 -1.421875 
Q 20.796875 -1.421875 13.15625 6.1875 
Q 5.515625 13.8125 5.515625 26.8125 
Q 5.515625 40.234375 12.765625 48.109375 
Q 20.015625 56 32.328125 56 
Q 43.359375 56 49.78125 48.890625 
Q 56.203125 41.796875 56.203125 29.59375 
z
M 47.21875 32.234375 
Q 47.125 39.59375 43.09375 43.984375 
Q 39.0625 48.390625 32.421875 48.390625 
Q 24.90625 48.390625 20.390625 44.140625 
Q 15.875 39.890625 15.1875 32.171875 
z
" id="DejaVuSans-65"/>
      <path d="M 34.28125 27.484375 
Q 23.390625 27.484375 19.1875 25 
Q 14.984375 22.515625 14.984375 16.5 
Q 14.984375 11.71875 18.140625 8.90625 
Q 21.296875 6.109375 26.703125 6.109375 
Q 34.1875 6.109375 38.703125 11.40625 
Q 43.21875 16.703125 43.21875 25.484375 
L 43.21875 27.484375 
z
M 52.203125 31.203125 
L 52.203125 0 
L 43.21875 0 
L 43.21875 8.296875 
Q 40.140625 3.328125 35.546875 0.953125 
Q 30.953125 -1.421875 24.3125 -1.421875 
Q 15.921875 -1.421875 10.953125 3.296875 
Q 6 8.015625 6 15.921875 
Q 6 25.140625 12.171875 29.828125 
Q 18.359375 34.515625 30.609375 34.515625 
L 43.21875 34.515625 
L 43.21875 35.40625 
Q 43.21875 41.609375 39.140625 45 
Q 35.0625 48.390625 27.6875 48.390625 
Q 23 48.390625 18.546875 47.265625 
Q 14.109375 46.140625 10.015625 43.890625 
L 10.015625 52.203125 
Q 14.9375 54.109375 19.578125 55.046875 
Q 24.21875 56 28.609375 56 
Q 40.484375 56 46.34375 49.84375 
Q 52.203125 43.703125 52.203125 31.203125 
z
" id="DejaVuSans-61"/>
      <path d="M 41.109375 46.296875 
Q 39.59375 47.171875 37.8125 47.578125 
Q 36.03125 48 33.890625 48 
Q 26.265625 48 22.1875 43.046875 
Q 18.109375 38.09375 18.109375 28.8125 
L 18.109375 0 
L 9.078125 0 
L 9.078125 54.6875 
L 18.109375 54.6875 
L 18.109375 46.1875 
Q 20.953125 51.171875 25.484375 53.578125 
Q 30.03125 56 36.53125 56 
Q 37.453125 56 38.578125 55.875 
Q 39.703125 55.765625 41.0625 55.515625 
z
" id="DejaVuSans-72"/>
     </defs>
     <g style="fill:#555555;" transform="translate(207.912188 281.79625)scale(0.12 -0.12)">
      <use xlink:href="#DejaVuSans-59"/>
      <use x="60.880859" xlink:href="#DejaVuSans-65"/>
      <use x="122.404297" xlink:href="#DejaVuSans-61"/>
      <use x="183.683594" xlink:href="#DejaVuSans-72"/>
     </g>
    </g>
   </g>
   <g id="matplotlib.axis_2">
    <g id="ytick_1">
     <g id="line2d_13">
      <path clip-path="url(#p5757c06866)" d="M 54 226.207532 
L 388.8 226.207532 
" style="fill:none;stroke:#ffffff;stroke-linecap:square;stroke-width:0.8;"/>
     </g>
     <g id="line2d_14">
      <defs>
       <path d="M 0 0 
L -3.5 0 
" id="mcef9316b99" style="stroke:#555555;stroke-width:0.8;"/>
      </defs>
      <g>
       <use style="fill:#555555;stroke:#555555;stroke-width:0.8;" x="54" xlink:href="#mcef9316b99" y="226.207532"/>
      </g>
     </g>
     <g id="text_8">
      <!-- 8 -->
      <g style="fill:#555555;" transform="translate(40.6375 230.00675)scale(0.1 -0.1)">
       <use xlink:href="#DejaVuSans-38"/>
      </g>
     </g>
    </g>
    <g id="ytick_2">
     <g id="line2d_15">
      <path clip-path="url(#p5757c06866)" d="M 54 186.285745 
L 388.8 186.285745 
" style="fill:none;stroke:#ffffff;stroke-linecap:square;stroke-width:0.8;"/>
     </g>
     <g id="line2d_16">
      <g>
       <use style="fill:#555555;stroke:#555555;stroke-width:0.8;" x="54" xlink:href="#mcef9316b99" y="186.285745"/>
      </g>
     </g>
     <g id="text_9">
      <!-- 10 -->
      <g style="fill:#555555;" transform="translate(34.275 190.084964)scale(0.1 -0.1)">
       <use xlink:href="#DejaVuSans-31"/>
       <use x="63.623047" xlink:href="#DejaVuSans-30"/>
      </g>
     </g>
    </g>
    <g id="ytick_3">
     <g id="line2d_17">
      <path clip-path="url(#p5757c06866)" d="M 54 146.363958 
L 388.8 146.363958 
" style="fill:none;stroke:#ffffff;stroke-linecap:square;stroke-width:0.8;"/>
     </g>
     <g id="line2d_18">
      <g>
       <use style="fill:#555555;stroke:#555555;stroke-width:0.8;" x="54" xlink:href="#mcef9316b99" y="146.363958"/>
      </g>
     </g>
     <g id="text_10">
      <!-- 12 -->
      <g style="fill:#555555;" transform="translate(34.275 150.163177)scale(0.1 -0.1)">
       <use xlink:href="#DejaVuSans-31"/>
       <use x="63.623047" xlink:href="#DejaVuSans-32"/>
      </g>
     </g>
    </g>
    <g id="ytick_4">
     <g id="line2d_19">
      <path clip-path="url(#p5757c06866)" d="M 54 106.442171 
L 388.8 106.442171 
" style="fill:none;stroke:#ffffff;stroke-linecap:square;stroke-width:0.8;"/>
     </g>
     <g id="line2d_20">
      <g>
       <use style="fill:#555555;stroke:#555555;stroke-width:0.8;" x="54" xlink:href="#mcef9316b99" y="106.442171"/>
      </g>
     </g>
     <g id="text_11">
      <!-- 14 -->
      <defs>
       <path d="M 37.796875 64.3125 
L 12.890625 25.390625 
L 37.796875 25.390625 
z
M 35.203125 72.90625 
L 47.609375 72.90625 
L 47.609375 25.390625 
L 58.015625 25.390625 
L 58.015625 17.1875 
L 47.609375 17.1875 
L 47.609375 0 
L 37.796875 0 
L 37.796875 17.1875 
L 4.890625 17.1875 
L 4.890625 26.703125 
z
" id="DejaVuSans-34"/>
      </defs>
      <g style="fill:#555555;" transform="translate(34.275 110.24139)scale(0.1 -0.1)">
       <use xlink:href="#DejaVuSans-31"/>
       <use x="63.623047" xlink:href="#DejaVuSans-34"/>
      </g>
     </g>
    </g>
    <g id="ytick_5">
     <g id="line2d_21">
      <path clip-path="url(#p5757c06866)" d="M 54 66.520384 
L 388.8 66.520384 
" style="fill:none;stroke:#ffffff;stroke-linecap:square;stroke-width:0.8;"/>
     </g>
     <g id="line2d_22">
      <g>
       <use style="fill:#555555;stroke:#555555;stroke-width:0.8;" x="54" xlink:href="#mcef9316b99" y="66.520384"/>
      </g>
     </g>
     <g id="text_12">
      <!-- 16 -->
      <defs>
       <path d="M 33.015625 40.375 
Q 26.375 40.375 22.484375 35.828125 
Q 18.609375 31.296875 18.609375 23.390625 
Q 18.609375 15.53125 22.484375 10.953125 
Q 26.375 6.390625 33.015625 6.390625 
Q 39.65625 6.390625 43.53125 10.953125 
Q 47.40625 15.53125 47.40625 23.390625 
Q 47.40625 31.296875 43.53125 35.828125 
Q 39.65625 40.375 33.015625 40.375 
z
M 52.59375 71.296875 
L 52.59375 62.3125 
Q 48.875 64.0625 45.09375 64.984375 
Q 41.3125 65.921875 37.59375 65.921875 
Q 27.828125 65.921875 22.671875 59.328125 
Q 17.53125 52.734375 16.796875 39.40625 
Q 19.671875 43.65625 24.015625 45.921875 
Q 28.375 48.1875 33.59375 48.1875 
Q 44.578125 48.1875 50.953125 41.515625 
Q 57.328125 34.859375 57.328125 23.390625 
Q 57.328125 12.15625 50.6875 5.359375 
Q 44.046875 -1.421875 33.015625 -1.421875 
Q 20.359375 -1.421875 13.671875 8.265625 
Q 6.984375 17.96875 6.984375 36.375 
Q 6.984375 53.65625 15.1875 63.9375 
Q 23.390625 74.21875 37.203125 74.21875 
Q 40.921875 74.21875 44.703125 73.484375 
Q 48.484375 72.75 52.59375 71.296875 
z
" id="DejaVuSans-36"/>
      </defs>
      <g style="fill:#555555;" transform="translate(34.275 70.319603)scale(0.1 -0.1)">
       <use xlink:href="#DejaVuSans-31"/>
       <use x="63.623047" xlink:href="#DejaVuSans-36"/>
      </g>
     </g>
    </g>
    <g id="text_13">
     <!-- Temperature in °C -->
     <defs>
      <path d="M -0.296875 72.90625 
L 61.375 72.90625 
L 61.375 64.59375 
L 35.5 64.59375 
L 35.5 0 
L 25.59375 0 
L 25.59375 64.59375 
L -0.296875 64.59375 
z
" id="DejaVuSans-54"/>
      <path d="M 52 44.1875 
Q 55.375 50.25 60.0625 53.125 
Q 64.75 56 71.09375 56 
Q 79.640625 56 84.28125 50.015625 
Q 88.921875 44.046875 88.921875 33.015625 
L 88.921875 0 
L 79.890625 0 
L 79.890625 32.71875 
Q 79.890625 40.578125 77.09375 44.375 
Q 74.3125 48.1875 68.609375 48.1875 
Q 61.625 48.1875 57.5625 43.546875 
Q 53.515625 38.921875 53.515625 30.90625 
L 53.515625 0 
L 44.484375 0 
L 44.484375 32.71875 
Q 44.484375 40.625 41.703125 44.40625 
Q 38.921875 48.1875 33.109375 48.1875 
Q 26.21875 48.1875 22.15625 43.53125 
Q 18.109375 38.875 18.109375 30.90625 
L 18.109375 0 
L 9.078125 0 
L 9.078125 54.6875 
L 18.109375 54.6875 
L 18.109375 46.1875 
Q 21.1875 51.21875 25.484375 53.609375 
Q 29.78125 56 35.6875 56 
Q 41.65625 56 45.828125 52.96875 
Q 50 49.953125 52 44.1875 
z
" id="DejaVuSans-6d"/>
      <path d="M 18.109375 8.203125 
L 18.109375 -20.796875 
L 9.078125 -20.796875 
L 9.078125 54.6875 
L 18.109375 54.6875 
L 18.109375 46.390625 
Q 20.953125 51.265625 25.265625 53.625 
Q 29.59375 56 35.59375 56 
Q 45.5625 56 51.78125 48.09375 
Q 58.015625 40.1875 58.015625 27.296875 
Q 58.015625 14.40625 51.78125 6.484375 
Q 45.5625 -1.421875 35.59375 -1.421875 
Q 29.59375 -1.421875 25.265625 0.953125 
Q 20.953125 3.328125 18.109375 8.203125 
z
M 48.6875 27.296875 
Q 48.6875 37.203125 44.609375 42.84375 
Q 40.53125 48.484375 33.40625 48.484375 
Q 26.265625 48.484375 22.1875 42.84375 
Q 18.109375 37.203125 18.109375 27.296875 
Q 18.109375 17.390625 22.1875 11.75 
Q 26.265625 6.109375 33.40625 6.109375 
Q 40.53125 6.109375 44.609375 11.75 
Q 48.6875 17.390625 48.6875 27.296875 
z
" id="DejaVuSans-70"/>
      <path d="M 18.3125 70.21875 
L 18.3125 54.6875 
L 36.8125 54.6875 
L 36.8125 47.703125 
L 18.3125 47.703125 
L 18.3125 18.015625 
Q 18.3125 11.328125 20.140625 9.421875 
Q 21.96875 7.515625 27.59375 7.515625 
L 36.8125 7.515625 
L 36.8125 0 
L 27.59375 0 
Q 17.1875 0 13.234375 3.875 
Q 9.28125 7.765625 9.28125 18.015625 
L 9.28125 47.703125 
L 2.6875 47.703125 
L 2.6875 54.6875 
L 9.28125 54.6875 
L 9.28125 70.21875 
z
" id="DejaVuSans-74"/>
      <path d="M 8.5 21.578125 
L 8.5 54.6875 
L 17.484375 54.6875 
L 17.484375 21.921875 
Q 17.484375 14.15625 20.5 10.265625 
Q 23.53125 6.390625 29.59375 6.390625 
Q 36.859375 6.390625 41.078125 11.03125 
Q 45.3125 15.671875 45.3125 23.6875 
L 45.3125 54.6875 
L 54.296875 54.6875 
L 54.296875 0 
L 45.3125 0 
L 45.3125 8.40625 
Q 42.046875 3.421875 37.71875 1 
Q 33.40625 -1.421875 27.6875 -1.421875 
Q 18.265625 -1.421875 13.375 4.4375 
Q 8.5 10.296875 8.5 21.578125 
z
M 31.109375 56 
z
" id="DejaVuSans-75"/>
      <path id="DejaVuSans-20"/>
      <path d="M 9.421875 54.6875 
L 18.40625 54.6875 
L 18.40625 0 
L 9.421875 0 
z
M 9.421875 75.984375 
L 18.40625 75.984375 
L 18.40625 64.59375 
L 9.421875 64.59375 
z
" id="DejaVuSans-69"/>
      <path d="M 54.890625 33.015625 
L 54.890625 0 
L 45.90625 0 
L 45.90625 32.71875 
Q 45.90625 40.484375 42.875 44.328125 
Q 39.84375 48.1875 33.796875 48.1875 
Q 26.515625 48.1875 22.3125 43.546875 
Q 18.109375 38.921875 18.109375 30.90625 
L 18.109375 0 
L 9.078125 0 
L 9.078125 54.6875 
L 18.109375 54.6875 
L 18.109375 46.1875 
Q 21.34375 51.125 25.703125 53.5625 
Q 30.078125 56 35.796875 56 
Q 45.21875 56 50.046875 50.171875 
Q 54.890625 44.34375 54.890625 33.015625 
z
" id="DejaVuSans-6e"/>
      <path d="M 25 67.921875 
Q 21.09375 67.921875 18.40625 65.203125 
Q 15.71875 62.5 15.71875 58.59375 
Q 15.71875 54.734375 18.40625 52.078125 
Q 21.09375 49.421875 25 49.421875 
Q 28.90625 49.421875 31.59375 52.078125 
Q 34.28125 54.734375 34.28125 58.59375 
Q 34.28125 62.453125 31.5625 65.1875 
Q 28.859375 67.921875 25 67.921875 
z
M 25 74.21875 
Q 28.125 74.21875 31 73.015625 
Q 33.890625 71.828125 35.984375 69.578125 
Q 38.234375 67.390625 39.359375 64.59375 
Q 40.484375 61.8125 40.484375 58.59375 
Q 40.484375 52.15625 35.96875 47.6875 
Q 31.453125 43.21875 24.90625 43.21875 
Q 18.3125 43.21875 13.90625 47.609375 
Q 9.515625 52 9.515625 58.59375 
Q 9.515625 65.140625 14 69.671875 
Q 18.5 74.21875 25 74.21875 
z
" id="DejaVuSans-b0"/>
      <path d="M 64.40625 67.28125 
L 64.40625 56.890625 
Q 59.421875 61.53125 53.78125 63.8125 
Q 48.140625 66.109375 41.796875 66.109375 
Q 29.296875 66.109375 22.65625 58.46875 
Q 16.015625 50.828125 16.015625 36.375 
Q 16.015625 21.96875 22.65625 14.328125 
Q 29.296875 6.6875 41.796875 6.6875 
Q 48.140625 6.6875 53.78125 8.984375 
Q 59.421875 11.28125 64.40625 15.921875 
L 64.40625 5.609375 
Q 59.234375 2.09375 53.4375 0.328125 
Q 47.65625 -1.421875 41.21875 -1.421875 
Q 24.65625 -1.421875 15.125 8.703125 
Q 5.609375 18.84375 5.609375 36.375 
Q 5.609375 53.953125 15.125 64.078125 
Q 24.65625 74.21875 41.21875 74.21875 
Q 47.75 74.21875 53.53125 72.484375 
Q 59.328125 70.75 64.40625 67.28125 
z
" id="DejaVuSans-43"/>
     </defs>
     <g style="fill:#555555;" transform="translate(27.779375 198.893438)rotate(-90)scale(0.12 -0.12)">
      <use xlink:href="#DejaVuSans-54"/>
      <use x="60.818359" xlink:href="#DejaVuSans-65"/>
      <use x="122.341797" xlink:href="#DejaVuSans-6d"/>
      <use x="219.753906" xlink:href="#DejaVuSans-70"/>
      <use x="283.230469" xlink:href="#DejaVuSans-65"/>
      <use x="344.753906" xlink:href="#DejaVuSans-72"/>
      <use x="385.867188" xlink:href="#DejaVuSans-61"/>
      <use x="447.146484" xlink:href="#DejaVuSans-74"/>
      <use x="486.355469" xlink:href="#DejaVuSans-75"/>
      <use x="549.734375" xlink:href="#DejaVuSans-72"/>
      <use x="590.816406" xlink:href="#DejaVuSans-65"/>
      <use x="652.339844" xlink:href="#DejaVuSans-20"/>
      <use x="684.126953" xlink:href="#DejaVuSans-69"/>
      <use x="711.910156" xlink:href="#DejaVuSans-6e"/>
      <use x="775.289062" xlink:href="#DejaVuSans-20"/>
      <use x="807.076172" xlink:href="#DejaVuSans-b0"/>
      <use x="857.076172" xlink:href="#DejaVuSans-43"/>
     </g>
    </g>
   </g>
   <g id="line2d_23">
    <path clip-path="url(#p5757c06866)" d="M 69.218182 225.608705 
L 70.407102 228.662721 
L 71.596023 227.085811 
L 72.784943 221.436878 
L 73.973864 223.213398 
L 76.351705 223.572694 
L 77.540625 224.450973 
L 78.729545 226.047844 
L 79.918466 225.968001 
L 81.107386 226.566828 
L 82.296307 225.568783 
L 83.485227 227.405185 
L 84.674148 228.243543 
L 85.863068 226.806358 
L 87.051989 226.067805 
L 88.240909 224.211442 
L 89.42983 224.431012 
L 90.61875 224.351169 
L 91.80767 220.838051 
L 92.996591 218.263096 
L 94.185511 214.789901 
L 95.374432 214.290878 
L 96.563352 214.869744 
L 97.752273 215.947632 
L 98.941193 217.764074 
L 100.130114 221.396956 
L 101.319034 221.4768 
L 102.507955 221.9359 
L 103.696875 222.115548 
L 104.885795 223.413007 
L 106.074716 226.307336 
L 107.263636 226.047844 
L 108.452557 225.668587 
L 109.641477 224.570738 
L 110.830398 223.233358 
L 112.019318 221.25723 
L 113.208239 221.237269 
L 114.397159 220.279146 
L 116.775 219.480711 
L 117.96392 218.482666 
L 119.152841 217.764074 
L 120.341761 216.78599 
L 123.908523 215.209079 
L 125.097443 214.889705 
L 126.286364 215.348806 
L 127.475284 217.424739 
L 129.853125 223.393046 
L 131.042045 226.84628 
L 132.230966 229.900297 
L 133.419886 231.417325 
L 135.797727 236.547274 
L 136.986648 239.521447 
L 138.175568 242.116364 
L 139.364489 241.717146 
L 140.553409 241.13828 
L 141.74233 239.741017 
L 144.12017 235.010286 
L 145.309091 235.050207 
L 146.498011 233.133962 
L 147.686932 230.838459 
L 148.875852 228.004012 
L 150.064773 224.351169 
L 151.253693 223.672498 
L 152.442614 222.534727 
L 153.631534 220.738247 
L 154.820455 221.636487 
L 156.009375 223.113593 
L 157.198295 222.534727 
L 158.387216 223.333163 
L 159.576136 225.329252 
L 160.765057 226.646671 
L 161.953977 229.501079 
L 163.142898 230.818498 
L 164.331818 231.437286 
L 165.520739 232.87447 
L 166.709659 232.774666 
L 167.89858 231.636895 
L 169.0875 231.31752 
L 170.27642 232.315565 
L 171.465341 231.397364 
L 172.654261 229.700688 
L 173.843182 228.283465 
L 175.032102 227.345303 
L 176.221023 226.646671 
L 177.409943 226.447062 
L 178.598864 225.468979 
L 179.787784 225.309291 
L 180.976705 225.568783 
L 182.165625 224.450973 
L 183.354545 223.93199 
L 184.543466 225.029839 
L 185.732386 225.688548 
L 186.921307 225.449018 
L 188.110227 224.910074 
L 189.299148 224.790308 
L 190.488068 225.449018 
L 191.676989 226.526906 
L 192.865909 226.38718 
L 194.05483 226.84628 
L 195.24375 226.706554 
L 196.43267 226.127688 
L 197.621591 224.770347 
L 199.999432 224.111638 
L 202.377273 223.093632 
L 203.566193 221.836096 
L 204.755114 221.357035 
L 205.944034 220.458794 
L 207.132955 221.097543 
L 208.321875 221.516722 
L 209.510795 221.317113 
L 210.699716 220.159381 
L 211.888636 220.678364 
L 213.077557 220.838051 
L 214.266477 220.538638 
L 215.455398 220.658403 
L 216.644318 221.396956 
L 217.833239 222.714375 
L 219.022159 222.59461 
L 220.21108 222.854102 
L 221.4 224.111638 
L 222.58892 225.588744 
L 223.777841 225.289331 
L 224.966761 225.588744 
L 226.155682 226.087766 
L 227.344602 226.207532 
L 228.533523 226.047844 
L 229.722443 225.26937 
L 232.100284 224.291286 
L 233.289205 223.532772 
L 235.667045 223.193437 
L 238.044886 221.097543 
L 239.233807 220.638442 
L 240.422727 220.319068 
L 241.611648 220.458794 
L 242.800568 220.299107 
L 243.989489 219.959772 
L 245.178409 220.638442 
L 246.36733 220.618481 
L 247.55625 221.057621 
L 248.74517 221.616526 
L 249.934091 222.335118 
L 251.123011 222.59461 
L 252.311932 222.434923 
L 253.500852 221.436878 
L 254.689773 220.718286 
L 255.878693 221.017699 
L 257.067614 220.877973 
L 258.256534 220.997738 
L 259.445455 220.598521 
L 260.634375 220.319068 
L 261.823295 219.540593 
L 263.012216 219.061532 
L 264.201136 218.822001 
L 266.578977 219.101454 
L 270.145739 216.10732 
L 271.334659 216.386772 
L 272.52358 215.847828 
L 273.7125 215.548415 
L 274.90142 214.949588 
L 276.090341 215.109275 
L 277.279261 214.869744 
L 278.468182 214.889705 
L 279.657102 215.249001 
L 282.034943 214.430605 
L 283.223864 213.392638 
L 284.412784 213.133146 
L 286.790625 212.99342 
L 287.979545 212.155063 
L 289.168466 211.715923 
L 290.357386 211.596158 
L 292.735227 211.137057 
L 293.924148 211.356627 
L 295.113068 211.695962 
L 296.301989 212.474437 
L 298.67983 212.933537 
L 299.86875 212.713968 
L 301.05767 213.292834 
L 302.246591 213.193029 
L 303.435511 213.991465 
L 304.624432 214.131191 
L 305.813352 214.091269 
L 307.002273 213.811817 
L 309.380114 213.053303 
L 310.569034 212.833733 
L 311.757955 212.853694 
L 314.135795 213.352716 
L 315.324716 212.713968 
L 316.513636 212.77385 
L 317.702557 213.272873 
L 318.891477 213.532364 
L 320.080398 213.292834 
L 322.458239 214.191074 
L 324.83608 213.89166 
L 326.025 213.472482 
L 327.21392 213.971504 
L 330.780682 213.073264 
L 331.969602 212.514359 
L 333.158523 211.376588 
L 334.347443 211.097135 
L 335.536364 210.937448 
L 336.725284 210.498309 
L 337.914205 210.657996 
L 339.103125 209.699873 
L 340.292045 209.42042 
L 341.480966 208.402415 
L 342.669886 208.023158 
L 343.858807 207.524135 
L 345.047727 207.504174 
L 346.236648 207.104957 
L 347.425568 207.424331 
L 348.614489 206.7257 
L 349.803409 205.348398 
L 352.18125 204.51004 
L 354.559091 203.132739 
L 355.748011 203.192622 
L 356.936932 202.733521 
L 359.314773 199.958957 
L 360.503693 199.400052 
L 361.692614 198.701421 
L 364.070455 196.665409 
L 365.259375 196.845057 
L 366.448295 196.405918 
L 367.637216 195.407873 
L 368.826136 195.188303 
L 370.015057 195.308069 
L 371.203977 195.148381 
L 372.392898 194.649359 
L 373.581818 194.389868 
L 373.581818 194.389868 
" style="fill:none;stroke:#e24a33;stroke-linecap:square;stroke-width:1.5;"/>
   </g>
   <g id="line2d_24">
    <path clip-path="url(#p5757c06866)" d="M 69.218182 214.3308 
L 70.407102 216.007515 
L 71.596023 216.56642 
L 72.784943 209.20085 
L 73.973864 209.400459 
L 75.162784 208.562102 
L 76.351705 208.003197 
L 77.540625 209.500264 
L 78.729545 211.516314 
L 79.918466 211.955454 
L 81.107386 213.113186 
L 82.296307 214.091269 
L 83.485227 218.12337 
L 84.674148 216.925716 
L 85.863068 215.129236 
L 87.051989 216.027476 
L 88.240909 212.913577 
L 89.42983 213.931582 
L 90.61875 213.632169 
L 91.80767 210.837644 
L 92.996591 206.825504 
L 94.185511 206.266599 
L 95.374432 201.216493 
L 96.563352 202.25446 
L 97.752273 201.775398 
L 98.941193 203.352309 
L 100.130114 208.701828 
L 101.319034 210.059169 
L 102.507955 208.103001 
L 103.696875 210.2987 
L 104.885795 213.252912 
L 106.074716 212.634124 
L 107.263636 213.492443 
L 108.452557 212.913577 
L 109.641477 214.071308 
L 110.830398 209.380498 
L 113.208239 203.83137 
L 114.397159 202.234499 
L 115.58608 200.238409 
L 116.775 204.769532 
L 117.96392 205.747616 
L 119.152841 205.627851 
L 120.341761 205.268554 
L 121.530682 207.584018 
L 123.908523 214.230996 
L 125.097443 212.913577 
L 126.286364 214.211035 
L 127.475284 216.56642 
L 128.664205 212.694007 
L 129.853125 212.973459 
L 131.042045 212.334711 
L 132.230966 215.787945 
L 133.419886 214.510448 
L 134.608807 216.306928 
L 135.797727 213.951543 
L 136.986648 217.784035 
L 138.175568 218.782079 
L 140.553409 215.548415 
L 141.74233 216.746068 
L 142.93125 218.303018 
L 144.12017 212.913577 
L 145.309091 213.712012 
L 146.498011 209.42042 
L 147.686932 207.544096 
L 148.875852 204.350353 
L 150.064773 204.210627 
L 151.253693 204.330392 
L 152.442614 210.139012 
L 153.631534 209.699873 
L 154.820455 210.139012 
L 156.009375 213.552325 
L 157.198295 212.294789 
L 158.387216 210.717878 
L 160.765057 212.674046 
L 161.953977 214.410644 
L 163.142898 218.322979 
L 164.331818 214.11123 
L 165.520739 214.789901 
L 167.89858 214.191074 
L 169.0875 213.612208 
L 170.27642 218.702236 
L 171.465341 220.478755 
L 172.654261 218.562509 
L 173.843182 218.322979 
L 175.032102 214.789901 
L 176.221023 215.987554 
L 177.409943 215.069353 
L 178.598864 216.187163 
L 179.787784 214.131191 
L 180.976705 217.384817 
L 182.165625 215.708102 
L 183.354545 217.404778 
L 184.543466 220.079537 
L 185.732386 217.784035 
L 186.921307 219.340984 
L 188.110227 216.207124 
L 189.299148 216.606342 
L 190.488068 215.867789 
L 191.676989 217.125325 
L 192.865909 212.614163 
L 194.05483 216.007515 
L 195.24375 212.394593 
L 196.43267 210.518269 
L 197.621591 212.474437 
L 198.810511 207.943314 
L 199.999432 209.021202 
L 201.188352 209.879521 
L 202.377273 213.452521 
L 203.566193 211.336666 
L 204.755114 212.414554 
L 205.944034 208.242728 
L 208.321875 211.516314 
L 209.510795 210.438426 
L 210.699716 212.155063 
L 211.888636 215.348806 
L 213.077557 212.334711 
L 214.266477 210.997331 
L 216.644318 213.831778 
L 217.833239 213.592247 
L 219.022159 212.733929 
L 220.21108 212.913577 
L 221.4 214.949588 
L 222.58892 218.482666 
L 223.777841 216.726107 
L 224.966761 218.183252 
L 226.155682 216.726107 
L 227.344602 218.722197 
L 228.533523 218.80204 
L 230.911364 219.660359 
L 232.100284 219.620437 
L 233.289205 218.103409 
L 234.478125 214.490487 
L 235.667045 213.252912 
L 236.855966 211.636079 
L 238.044886 211.43647 
L 239.233807 212.733929 
L 240.422727 211.176979 
L 241.611648 210.797722 
L 242.800568 209.560147 
L 243.989489 208.08304 
L 245.178409 208.422376 
L 246.36733 210.558191 
L 247.55625 212.155063 
L 248.74517 211.815727 
L 249.934091 209.20085 
L 251.123011 207.484214 
L 252.311932 207.224722 
L 253.500852 206.526091 
L 254.689773 207.204761 
L 255.878693 207.224722 
L 257.067614 207.484214 
L 258.256534 205.348398 
L 259.445455 205.667772 
L 260.634375 205.587929 
L 261.823295 205.807499 
L 263.012216 207.264644 
L 264.201136 208.921398 
L 265.390057 211.316705 
L 266.578977 209.799677 
L 268.956818 208.602024 
L 270.145739 209.600068 
L 271.334659 209.620029 
L 272.52358 209.400459 
L 273.7125 212.254867 
L 274.90142 209.320616 
L 276.090341 209.839599 
L 277.279261 205.068945 
L 278.468182 205.029024 
L 279.657102 205.567968 
L 280.846023 204.190666 
L 282.034943 202.49399 
L 283.223864 199.839191 
L 284.412784 204.709649 
L 285.601705 206.166795 
L 286.790625 209.021202 
L 287.979545 206.326482 
L 289.168466 209.081085 
L 290.357386 208.482258 
L 291.546307 208.841554 
L 292.735227 210.07913 
L 293.924148 209.699873 
L 295.113068 208.262688 
L 296.301989 203.6118 
L 297.490909 199.420013 
L 298.67983 197.80318 
L 299.86875 196.884979 
L 301.05767 198.68146 
L 302.246591 201.236454 
L 303.435511 204.330392 
L 304.624432 202.993013 
L 305.813352 204.809454 
L 308.191193 205.428242 
L 309.380114 205.248594 
L 310.569034 206.206716 
L 311.757955 210.218856 
L 312.946875 209.360538 
L 314.135795 209.42042 
L 315.324716 205.887342 
L 316.513636 204.649767 
L 317.702557 204.190666 
L 318.891477 207.084996 
L 320.080398 208.661906 
L 321.269318 209.20085 
L 322.458239 207.703783 
L 324.83608 203.37227 
L 326.025 199.879113 
L 327.21392 200.25837 
L 328.402841 201.336258 
L 329.591761 202.174616 
L 330.780682 201.975007 
L 331.969602 202.314342 
L 333.158523 203.032934 
L 334.347443 200.637627 
L 335.536364 198.701421 
L 336.725284 200.597705 
L 337.914205 203.83137 
L 339.103125 204.569923 
L 340.292045 207.464253 
L 341.480966 205.148789 
L 342.669886 200.777353 
L 343.858807 195.886935 
L 345.047727 195.527638 
L 346.236648 194.928812 
L 347.425568 196.665409 
L 348.614489 193.691236 
L 349.803409 191.116281 
L 350.99233 192.912761 
L 352.18125 189.639175 
L 353.37017 189.579292 
L 354.559091 189.858745 
L 355.748011 189.359722 
L 356.936932 188.701013 
L 358.125852 188.940544 
L 359.314773 187.483398 
L 360.503693 188.701013 
L 361.692614 188.361678 
L 362.881534 183.032119 
L 364.070455 180.736616 
L 365.259375 179.519002 
L 366.448295 180.556968 
L 367.637216 185.247778 
L 368.826136 183.511181 
L 370.015057 184.110007 
L 371.203977 184.010203 
L 371.203977 184.010203 
" style="fill:none;stroke:#348abd;stroke-linecap:square;stroke-width:1.5;"/>
   </g>
   <g id="line2d_25">
    <path clip-path="url(#p5757c06866)" d="M 177.409943 77.938015 
L 178.598864 77.239384 
L 179.787784 77.219423 
L 180.976705 76.70044 
L 182.165625 75.383021 
L 183.354545 74.564624 
L 184.543466 75.163451 
L 185.732386 74.864038 
L 186.921307 73.925876 
L 188.110227 73.526658 
L 189.299148 74.624507 
L 190.488068 74.484781 
L 191.676989 76.420988 
L 192.865909 77.59868 
L 194.05483 79.874222 
L 195.24375 80.113753 
L 197.621591 80.093792 
L 198.810511 79.355239 
L 199.999432 78.456999 
L 201.188352 76.660518 
L 202.377273 74.624507 
L 203.566193 71.33096 
L 204.755114 70.253072 
L 205.944034 68.596317 
L 207.132955 69.09534 
L 208.321875 68.975574 
L 209.510795 70.013541 
L 210.699716 70.811977 
L 211.888636 70.732133 
L 215.455398 74.584585 
L 216.644318 75.243295 
L 217.833239 76.760323 
L 220.21108 78.956021 
L 221.4 78.516881 
L 222.58892 77.698485 
L 223.777841 79.355239 
L 224.966761 77.478915 
L 226.155682 77.299267 
L 227.344602 77.518837 
L 228.533523 78.077742 
L 229.722443 75.462865 
L 230.911364 74.744273 
L 232.100284 73.406893 
L 233.289205 73.506697 
L 234.478125 72.588496 
L 235.667045 71.510608 
L 238.044886 73.267166 
L 239.233807 71.590451 
L 240.422727 70.732133 
L 241.611648 71.909826 
L 242.800568 71.450725 
L 243.989489 71.909826 
L 245.178409 71.969708 
L 246.36733 73.287127 
L 247.55625 73.287127 
L 248.74517 74.365016 
L 249.934091 73.925876 
L 251.123011 75.243295 
L 252.311932 75.642513 
L 253.500852 73.885954 
L 254.689773 72.66834 
L 255.878693 72.169317 
L 257.067614 73.12744 
L 258.256534 73.366971 
L 259.445455 73.187323 
L 260.634375 71.670295 
L 261.823295 71.470686 
L 263.012216 70.472641 
L 264.201136 69.654245 
L 265.390057 71.251116 
L 266.578977 72.169317 
L 267.767898 71.590451 
L 268.956818 69.514518 
L 270.145739 68.556396 
L 273.7125 68.296904 
L 274.90142 68.43663 
L 277.279261 67.897686 
L 278.468182 66.540345 
L 279.657102 68.057373 
L 280.846023 68.137217 
L 282.034943 67.558351 
L 284.412784 66.839759 
L 285.601705 65.342692 
L 286.790625 65.003357 
L 287.979545 64.803748 
L 289.168466 64.224882 
L 290.357386 65.063239 
L 291.546307 62.228792 
L 292.735227 62.667932 
L 293.924148 62.328597 
L 295.113068 61.470278 
L 296.301989 61.170865 
L 297.490909 61.590044 
L 298.67983 61.809614 
L 299.86875 59.773602 
L 301.05767 60.352468 
L 302.246591 60.053055 
L 303.435511 62.228792 
L 304.624432 62.767736 
L 305.813352 63.606094 
L 307.002273 63.646016 
L 308.191193 63.246798 
L 309.380114 61.570083 
L 310.569034 61.550122 
L 311.757955 63.206876 
L 312.946875 61.749731 
L 314.135795 61.749731 
L 315.324716 59.973211 
L 316.513636 59.074971 
L 317.702557 58.955206 
L 318.891477 60.751686 
L 321.269318 63.905507 
L 322.458239 64.703943 
L 323.647159 64.464412 
L 324.83608 65.761871 
L 326.025 64.923513 
L 327.21392 66.500424 
L 328.402841 66.260893 
L 329.591761 65.183005 
L 330.780682 63.386524 
L 333.158523 64.504334 
L 334.347443 63.52625 
L 336.725284 63.985351 
L 337.914205 64.86363 
L 339.103125 64.40453 
L 340.292045 64.364608 
L 341.480966 65.362653 
L 342.669886 65.961479 
L 343.858807 62.588088 
L 345.047727 62.128988 
L 346.236648 62.248753 
L 347.425568 62.727815 
L 348.614489 59.653837 
L 350.99233 58.476144 
L 352.18125 57.338373 
L 353.37017 54.563809 
L 354.559091 53.68553 
L 355.748011 54.404122 
L 356.936932 52.827212 
L 358.125852 50.671435 
L 359.314773 49.154407 
L 360.503693 49.354016 
L 361.692614 48.575541 
L 362.881534 46.180234 
L 364.070455 44.443636 
L 365.259375 46.120351 
L 366.448295 45.461642 
L 367.637216 45.761055 
L 368.826136 46.579452 
L 370.015057 48.076519 
L 371.203977 45.840899 
L 371.203977 45.840899 
" style="fill:none;stroke:#988ed5;stroke-linecap:square;stroke-width:1.5;"/>
   </g>
   <g id="line2d_26">
    <path clip-path="url(#p5757c06866)" d="M 186.921307 102.909093 
L 188.110227 103.72749 
L 189.299148 103.707529 
L 190.488068 102.729445 
L 191.676989 101.49187 
L 192.865909 101.431987 
L 194.05483 99.03668 
L 195.24375 98.797149 
L 196.43267 97.659378 
L 197.621591 98.298127 
L 198.810511 98.178361 
L 199.999432 96.461725 
L 201.188352 95.703211 
L 202.377273 96.781099 
L 203.566193 96.381881 
L 204.755114 96.321998 
L 205.944034 98.497736 
L 207.132955 97.619456 
L 208.321875 98.078557 
L 209.510795 96.940786 
L 210.699716 96.701255 
L 211.888636 97.439808 
L 213.077557 99.376015 
L 214.266477 99.276211 
L 215.455398 101.372104 
L 216.644318 102.430032 
L 217.833239 102.509875 
L 219.022159 101.931009 
L 220.21108 101.651557 
L 221.4 102.949015 
L 222.58892 102.290305 
L 223.777841 101.072691 
L 224.966761 99.415937 
L 226.155682 99.276211 
L 227.344602 98.338049 
L 228.533523 99.395976 
L 229.722443 99.894998 
L 230.911364 102.090696 
L 232.100284 102.809289 
L 233.289205 103.94706 
L 234.478125 105.803423 
L 235.667045 107.340411 
L 236.855966 106.162719 
L 238.044886 106.402249 
L 239.233807 106.362328 
L 241.611648 103.527881 
L 242.800568 102.649601 
L 245.178409 100.413981 
L 246.36733 99.93492 
L 247.55625 99.914959 
L 248.74517 100.853121 
L 249.934091 102.60968 
L 251.123011 102.84921 
L 252.311932 102.330227 
L 253.500852 102.669562 
L 254.689773 102.84921 
L 255.878693 105.244518 
L 257.067614 105.803423 
L 258.256534 105.543931 
L 260.634375 107.340411 
L 261.823295 105.783462 
L 263.012216 106.462132 
L 265.390057 107.420255 
L 266.578977 107.340411 
L 267.767898 104.286395 
L 270.145739 103.567803 
L 271.334659 102.270345 
L 272.52358 101.212417 
L 274.90142 98.577579 
L 276.090341 98.976797 
L 277.279261 96.561529 
L 278.468182 97.000669 
L 279.657102 97.02063 
L 280.846023 96.781099 
L 282.034943 96.721216 
L 283.223864 95.603406 
L 284.412784 93.866808 
L 285.601705 93.767004 
L 286.790625 93.846848 
L 287.979545 92.269937 
L 289.168466 94.545479 
L 290.357386 93.966613 
L 291.546307 96.561529 
L 292.735227 96.262116 
L 293.924148 97.659378 
L 295.113068 99.475819 
L 296.301989 100.394021 
L 297.490909 102.230423 
L 298.67983 102.410071 
L 299.86875 103.008898 
L 301.05767 102.988937 
L 302.246591 104.326317 
L 303.435511 103.827294 
L 304.624432 103.667607 
L 305.813352 100.15449 
L 307.002273 97.180317 
L 308.191193 97.320043 
L 309.380114 96.14235 
L 310.569034 95.92278 
L 311.757955 96.381881 
L 312.946875 96.262116 
L 314.135795 95.46368 
L 315.324716 94.146261 
L 316.513636 94.325909 
L 317.702557 95.822976 
L 318.891477 97.579535 
L 320.080398 97.240199 
L 321.269318 98.757227 
L 322.458239 98.697345 
L 323.647159 97.91887 
L 324.83608 97.579535 
L 326.025 98.218283 
L 327.21392 98.258205 
L 328.402841 97.998713 
L 329.591761 97.399887 
L 330.780682 96.441764 
L 331.969602 96.481685 
L 333.158523 93.826887 
L 334.347443 94.325909 
L 337.914205 91.411619 
L 340.292045 90.213965 
L 341.480966 89.974434 
L 342.669886 91.052322 
L 343.858807 91.072283 
L 345.047727 92.509468 
L 346.236648 89.455451 
L 347.425568 89.65506 
L 348.614489 91.172088 
L 349.803409 89.016311 
L 350.99233 87.898501 
L 352.18125 86.30163 
L 353.37017 87.698892 
L 354.559091 87.778736 
L 355.748011 87.19987 
L 356.936932 85.702803 
L 358.125852 86.76073 
L 359.314773 85.842529 
L 360.503693 83.527066 
L 361.692614 83.806518 
L 362.881534 84.884406 
L 364.070455 86.501239 
L 366.448295 83.946244 
L 367.637216 84.644876 
L 368.826136 86.141943 
L 370.015057 86.042138 
L 371.203977 84.445267 
L 371.203977 84.445267 
" style="fill:none;stroke:#777777;stroke-linecap:square;stroke-width:1.5;"/>
   </g>
   <g id="patch_3">
    <path d="M 54 252 
L 54 34.56 
" style="fill:none;stroke:#ffffff;stroke-linecap:square;stroke-linejoin:miter;"/>
   </g>
   <g id="patch_4">
    <path d="M 388.8 252 
L 388.8 34.56 
" style="fill:none;stroke:#ffffff;stroke-linecap:square;stroke-linejoin:miter;"/>
   </g>
   <g id="patch_5">
    <path d="M 54 252 
L 388.8 252 
" style="fill:none;stroke:#ffffff;stroke-linecap:square;stroke-linejoin:miter;"/>
   </g>
   <g id="patch_6">
    <path d="M 54 34.56 
L 388.8 34.56 
" style="fill:none;stroke:#ffffff;stroke-linecap:square;stroke-linejoin:miter;"/>
   </g>
   <g id="text_14">
    <!-- Weather data -->
    <defs>
     <path d="M 3.328125 72.90625 
L 13.28125 72.90625 
L 28.609375 11.28125 
L 43.890625 72.90625 
L 54.984375 72.90625 
L 70.3125 11.28125 
L 85.59375 72.90625 
L 95.609375 72.90625 
L 77.296875 0 
L 64.890625 0 
L 49.515625 63.28125 
L 33.984375 0 
L 21.578125 0 
z
" id="DejaVuSans-57"/>
     <path d="M 54.890625 33.015625 
L 54.890625 0 
L 45.90625 0 
L 45.90625 32.71875 
Q 45.90625 40.484375 42.875 44.328125 
Q 39.84375 48.1875 33.796875 48.1875 
Q 26.515625 48.1875 22.3125 43.546875 
Q 18.109375 38.921875 18.109375 30.90625 
L 18.109375 0 
L 9.078125 0 
L 9.078125 75.984375 
L 18.109375 75.984375 
L 18.109375 46.1875 
Q 21.34375 51.125 25.703125 53.5625 
Q 30.078125 56 35.796875 56 
Q 45.21875 56 50.046875 50.171875 
Q 54.890625 44.34375 54.890625 33.015625 
z
" id="DejaVuSans-68"/>
     <path d="M 45.40625 46.390625 
L 45.40625 75.984375 
L 54.390625 75.984375 
L 54.390625 0 
L 45.40625 0 
L 45.40625 8.203125 
Q 42.578125 3.328125 38.25 0.953125 
Q 33.9375 -1.421875 27.875 -1.421875 
Q 17.96875 -1.421875 11.734375 6.484375 
Q 5.515625 14.40625 5.515625 27.296875 
Q 5.515625 40.1875 11.734375 48.09375 
Q 17.96875 56 27.875 56 
Q 33.9375 56 38.25 53.625 
Q 42.578125 51.265625 45.40625 46.390625 
z
M 14.796875 27.296875 
Q 14.796875 17.390625 18.875 11.75 
Q 22.953125 6.109375 30.078125 6.109375 
Q 37.203125 6.109375 41.296875 11.75 
Q 45.40625 17.390625 45.40625 27.296875 
Q 45.40625 37.203125 41.296875 42.84375 
Q 37.203125 48.484375 30.078125 48.484375 
Q 22.953125 48.484375 18.875 42.84375 
Q 14.796875 37.203125 14.796875 27.296875 
z
" id="DejaVuSans-64"/>
    </defs>
    <g transform="translate(172.162125 28.56)scale(0.144 -0.144)">
     <use xlink:href="#DejaVuSans-57"/>
     <use x="98.798828" xlink:href="#DejaVuSans-65"/>
     <use x="160.322266" xlink:href="#DejaVuSans-61"/>
     <use x="221.601562" xlink:href="#DejaVuSans-74"/>
     <use x="260.810547" xlink:href="#DejaVuSans-68"/>
     <use x="324.189453" xlink:href="#DejaVuSans-65"/>
     <use x="385.712891" xlink:href="#DejaVuSans-72"/>
     <use x="426.826172" xlink:href="#DejaVuSans-20"/>
     <use x="458.613281" xlink:href="#DejaVuSans-64"/>
     <use x="522.089844" xlink:href="#DejaVuSans-61"/>
     <use x="583.369141" xlink:href="#DejaVuSans-74"/>
     <use x="622.578125" xlink:href="#DejaVuSans-61"/>
    </g>
   </g>
   <g id="legend_1">
    <g id="patch_7">
     <path d="M 61 101.2725 
L 162.4125 101.2725 
Q 164.4125 101.2725 164.4125 99.2725 
L 164.4125 41.56 
Q 164.4125 39.56 162.4125 39.56 
L 61 39.56 
Q 59 39.56 59 41.56 
L 59 99.2725 
Q 59 101.2725 61 101.2725 
z
" style="fill:#e5e5e5;opacity:0.8;stroke:#cccccc;stroke-linejoin:miter;stroke-width:0.5;"/>
    </g>
    <g id="line2d_27">
     <path d="M 63 47.658437 
L 83 47.658437 
" style="fill:none;stroke:#e24a33;stroke-linecap:square;stroke-width:1.5;"/>
    </g>
    <g id="line2d_28"/>
    <g id="text_15">
     <!-- Global -->
     <defs>
      <path d="M 59.515625 10.40625 
L 59.515625 29.984375 
L 43.40625 29.984375 
L 43.40625 38.09375 
L 69.28125 38.09375 
L 69.28125 6.78125 
Q 63.578125 2.734375 56.6875 0.65625 
Q 49.8125 -1.421875 42 -1.421875 
Q 24.90625 -1.421875 15.25 8.5625 
Q 5.609375 18.5625 5.609375 36.375 
Q 5.609375 54.25 15.25 64.234375 
Q 24.90625 74.21875 42 74.21875 
Q 49.125 74.21875 55.546875 72.453125 
Q 61.96875 70.703125 67.390625 67.28125 
L 67.390625 56.78125 
Q 61.921875 61.421875 55.765625 63.765625 
Q 49.609375 66.109375 42.828125 66.109375 
Q 29.4375 66.109375 22.71875 58.640625 
Q 16.015625 51.171875 16.015625 36.375 
Q 16.015625 21.625 22.71875 14.15625 
Q 29.4375 6.6875 42.828125 6.6875 
Q 48.046875 6.6875 52.140625 7.59375 
Q 56.25 8.5 59.515625 10.40625 
z
" id="DejaVuSans-47"/>
      <path d="M 9.421875 75.984375 
L 18.40625 75.984375 
L 18.40625 0 
L 9.421875 0 
z
" id="DejaVuSans-6c"/>
      <path d="M 30.609375 48.390625 
Q 23.390625 48.390625 19.1875 42.75 
Q 14.984375 37.109375 14.984375 27.296875 
Q 14.984375 17.484375 19.15625 11.84375 
Q 23.34375 6.203125 30.609375 6.203125 
Q 37.796875 6.203125 41.984375 11.859375 
Q 46.1875 17.53125 46.1875 27.296875 
Q 46.1875 37.015625 41.984375 42.703125 
Q 37.796875 48.390625 30.609375 48.390625 
z
M 30.609375 56 
Q 42.328125 56 49.015625 48.375 
Q 55.71875 40.765625 55.71875 27.296875 
Q 55.71875 13.875 49.015625 6.21875 
Q 42.328125 -1.421875 30.609375 -1.421875 
Q 18.84375 -1.421875 12.171875 6.21875 
Q 5.515625 13.875 5.515625 27.296875 
Q 5.515625 40.765625 12.171875 48.375 
Q 18.84375 56 30.609375 56 
z
" id="DejaVuSans-6f"/>
      <path d="M 48.6875 27.296875 
Q 48.6875 37.203125 44.609375 42.84375 
Q 40.53125 48.484375 33.40625 48.484375 
Q 26.265625 48.484375 22.1875 42.84375 
Q 18.109375 37.203125 18.109375 27.296875 
Q 18.109375 17.390625 22.1875 11.75 
Q 26.265625 6.109375 33.40625 6.109375 
Q 40.53125 6.109375 44.609375 11.75 
Q 48.6875 17.390625 48.6875 27.296875 
z
M 18.109375 46.390625 
Q 20.953125 51.265625 25.265625 53.625 
Q 29.59375 56 35.59375 56 
Q 45.5625 56 51.78125 48.09375 
Q 58.015625 40.1875 58.015625 27.296875 
Q 58.015625 14.40625 51.78125 6.484375 
Q 45.5625 -1.421875 35.59375 -1.421875 
Q 29.59375 -1.421875 25.265625 0.953125 
Q 20.953125 3.328125 18.109375 8.203125 
L 18.109375 0 
L 9.078125 0 
L 9.078125 75.984375 
L 18.109375 75.984375 
z
" id="DejaVuSans-62"/>
     </defs>
     <g transform="translate(91 51.158437)scale(0.1 -0.1)">
      <use xlink:href="#DejaVuSans-47"/>
      <use x="77.490234" xlink:href="#DejaVuSans-6c"/>
      <use x="105.273438" xlink:href="#DejaVuSans-6f"/>
      <use x="166.455078" xlink:href="#DejaVuSans-62"/>
      <use x="229.931641" xlink:href="#DejaVuSans-61"/>
      <use x="291.210938" xlink:href="#DejaVuSans-6c"/>
     </g>
    </g>
    <g id="line2d_29">
     <path d="M 63 62.336562 
L 83 62.336562 
" style="fill:none;stroke:#348abd;stroke-linecap:square;stroke-width:1.5;"/>
    </g>
    <g id="line2d_30"/>
    <g id="text_16">
     <!-- Berlin -->
     <defs>
      <path d="M 19.671875 34.8125 
L 19.671875 8.109375 
L 35.5 8.109375 
Q 43.453125 8.109375 47.28125 11.40625 
Q 51.125 14.703125 51.125 21.484375 
Q 51.125 28.328125 47.28125 31.5625 
Q 43.453125 34.8125 35.5 34.8125 
z
M 19.671875 64.796875 
L 19.671875 42.828125 
L 34.28125 42.828125 
Q 41.5 42.828125 45.03125 45.53125 
Q 48.578125 48.25 48.578125 53.8125 
Q 48.578125 59.328125 45.03125 62.0625 
Q 41.5 64.796875 34.28125 64.796875 
z
M 9.8125 72.90625 
L 35.015625 72.90625 
Q 46.296875 72.90625 52.390625 68.21875 
Q 58.5 63.53125 58.5 54.890625 
Q 58.5 48.1875 55.375 44.234375 
Q 52.25 40.28125 46.1875 39.3125 
Q 53.46875 37.75 57.5 32.78125 
Q 61.53125 27.828125 61.53125 20.40625 
Q 61.53125 10.640625 54.890625 5.3125 
Q 48.25 0 35.984375 0 
L 9.8125 0 
z
" id="DejaVuSans-42"/>
     </defs>
     <g transform="translate(91 65.836562)scale(0.1 -0.1)">
      <use xlink:href="#DejaVuSans-42"/>
      <use x="68.603516" xlink:href="#DejaVuSans-65"/>
      <use x="130.126953" xlink:href="#DejaVuSans-72"/>
      <use x="171.240234" xlink:href="#DejaVuSans-6c"/>
      <use x="199.023438" xlink:href="#DejaVuSans-69"/>
      <use x="226.806641" xlink:href="#DejaVuSans-6e"/>
     </g>
    </g>
    <g id="line2d_31">
     <path d="M 63 77.014687 
L 83 77.014687 
" style="fill:none;stroke:#988ed5;stroke-linecap:square;stroke-width:1.5;"/>
    </g>
    <g id="line2d_32"/>
    <g id="text_17">
     <!-- Shanghai -->
     <defs>
      <path d="M 53.515625 70.515625 
L 53.515625 60.890625 
Q 47.90625 63.578125 42.921875 64.890625 
Q 37.9375 66.21875 33.296875 66.21875 
Q 25.25 66.21875 20.875 63.09375 
Q 16.5 59.96875 16.5 54.203125 
Q 16.5 49.359375 19.40625 46.890625 
Q 22.3125 44.4375 30.421875 42.921875 
L 36.375 41.703125 
Q 47.40625 39.59375 52.65625 34.296875 
Q 57.90625 29 57.90625 20.125 
Q 57.90625 9.515625 50.796875 4.046875 
Q 43.703125 -1.421875 29.984375 -1.421875 
Q 24.8125 -1.421875 18.96875 -0.25 
Q 13.140625 0.921875 6.890625 3.21875 
L 6.890625 13.375 
Q 12.890625 10.015625 18.65625 8.296875 
Q 24.421875 6.59375 29.984375 6.59375 
Q 38.421875 6.59375 43.015625 9.90625 
Q 47.609375 13.234375 47.609375 19.390625 
Q 47.609375 24.75 44.3125 27.78125 
Q 41.015625 30.8125 33.5 32.328125 
L 27.484375 33.5 
Q 16.453125 35.6875 11.515625 40.375 
Q 6.59375 45.0625 6.59375 53.421875 
Q 6.59375 63.09375 13.40625 68.65625 
Q 20.21875 74.21875 32.171875 74.21875 
Q 37.3125 74.21875 42.625 73.28125 
Q 47.953125 72.359375 53.515625 70.515625 
z
" id="DejaVuSans-53"/>
      <path d="M 45.40625 27.984375 
Q 45.40625 37.75 41.375 43.109375 
Q 37.359375 48.484375 30.078125 48.484375 
Q 22.859375 48.484375 18.828125 43.109375 
Q 14.796875 37.75 14.796875 27.984375 
Q 14.796875 18.265625 18.828125 12.890625 
Q 22.859375 7.515625 30.078125 7.515625 
Q 37.359375 7.515625 41.375 12.890625 
Q 45.40625 18.265625 45.40625 27.984375 
z
M 54.390625 6.78125 
Q 54.390625 -7.171875 48.1875 -13.984375 
Q 42 -20.796875 29.203125 -20.796875 
Q 24.46875 -20.796875 20.265625 -20.09375 
Q 16.0625 -19.390625 12.109375 -17.921875 
L 12.109375 -9.1875 
Q 16.0625 -11.328125 19.921875 -12.34375 
Q 23.78125 -13.375 27.78125 -13.375 
Q 36.625 -13.375 41.015625 -8.765625 
Q 45.40625 -4.15625 45.40625 5.171875 
L 45.40625 9.625 
Q 42.625 4.78125 38.28125 2.390625 
Q 33.9375 0 27.875 0 
Q 17.828125 0 11.671875 7.65625 
Q 5.515625 15.328125 5.515625 27.984375 
Q 5.515625 40.671875 11.671875 48.328125 
Q 17.828125 56 27.875 56 
Q 33.9375 56 38.28125 53.609375 
Q 42.625 51.21875 45.40625 46.390625 
L 45.40625 54.6875 
L 54.390625 54.6875 
z
" id="DejaVuSans-67"/>
     </defs>
     <g transform="translate(91 80.514687)scale(0.1 -0.1)">
      <use xlink:href="#DejaVuSans-53"/>
      <use x="63.476562" xlink:href="#DejaVuSans-68"/>
      <use x="126.855469" xlink:href="#DejaVuSans-61"/>
      <use x="188.134766" xlink:href="#DejaVuSans-6e"/>
      <use x="251.513672" xlink:href="#DejaVuSans-67"/>
      <use x="314.990234" xlink:href="#DejaVuSans-68"/>
      <use x="378.369141" xlink:href="#DejaVuSans-61"/>
      <use x="439.648438" xlink:href="#DejaVuSans-69"/>
     </g>
    </g>
    <g id="line2d_33">
     <path d="M 63 91.692813 
L 83 91.692813 
" style="fill:none;stroke:#777777;stroke-linecap:square;stroke-width:1.5;"/>
    </g>
    <g id="line2d_34"/>
    <g id="text_18">
     <!-- San Francisco -->
     <defs>
      <path d="M 9.8125 72.90625 
L 51.703125 72.90625 
L 51.703125 64.59375 
L 19.671875 64.59375 
L 19.671875 43.109375 
L 48.578125 43.109375 
L 48.578125 34.8125 
L 19.671875 34.8125 
L 19.671875 0 
L 9.8125 0 
z
" id="DejaVuSans-46"/>
      <path d="M 48.78125 52.59375 
L 48.78125 44.1875 
Q 44.96875 46.296875 41.140625 47.34375 
Q 37.3125 48.390625 33.40625 48.390625 
Q 24.65625 48.390625 19.8125 42.84375 
Q 14.984375 37.3125 14.984375 27.296875 
Q 14.984375 17.28125 19.8125 11.734375 
Q 24.65625 6.203125 33.40625 6.203125 
Q 37.3125 6.203125 41.140625 7.25 
Q 44.96875 8.296875 48.78125 10.40625 
L 48.78125 2.09375 
Q 45.015625 0.34375 40.984375 -0.53125 
Q 36.96875 -1.421875 32.421875 -1.421875 
Q 20.0625 -1.421875 12.78125 6.34375 
Q 5.515625 14.109375 5.515625 27.296875 
Q 5.515625 40.671875 12.859375 48.328125 
Q 20.21875 56 33.015625 56 
Q 37.15625 56 41.109375 55.140625 
Q 45.0625 54.296875 48.78125 52.59375 
z
" id="DejaVuSans-63"/>
      <path d="M 44.28125 53.078125 
L 44.28125 44.578125 
Q 40.484375 46.53125 36.375 47.5 
Q 32.28125 48.484375 27.875 48.484375 
Q 21.1875 48.484375 17.84375 46.4375 
Q 14.5 44.390625 14.5 40.28125 
Q 14.5 37.15625 16.890625 35.375 
Q 19.28125 33.59375 26.515625 31.984375 
L 29.59375 31.296875 
Q 39.15625 29.25 43.1875 25.515625 
Q 47.21875 21.78125 47.21875 15.09375 
Q 47.21875 7.46875 41.1875 3.015625 
Q 35.15625 -1.421875 24.609375 -1.421875 
Q 20.21875 -1.421875 15.453125 -0.5625 
Q 10.6875 0.296875 5.421875 2 
L 5.421875 11.28125 
Q 10.40625 8.6875 15.234375 7.390625 
Q 20.0625 6.109375 24.8125 6.109375 
Q 31.15625 6.109375 34.5625 8.28125 
Q 37.984375 10.453125 37.984375 14.40625 
Q 37.984375 18.0625 35.515625 20.015625 
Q 33.0625 21.96875 24.703125 23.78125 
L 21.578125 24.515625 
Q 13.234375 26.265625 9.515625 29.90625 
Q 5.8125 33.546875 5.8125 39.890625 
Q 5.8125 47.609375 11.28125 51.796875 
Q 16.75 56 26.8125 56 
Q 31.78125 56 36.171875 55.265625 
Q 40.578125 54.546875 44.28125 53.078125 
z
" id="DejaVuSans-73"/>
     </defs>
     <g transform="translate(91 95.192813)scale(0.1 -0.1)">
      <use xlink:href="#DejaVuSans-53"/>
      <use x="63.476562" xlink:href="#DejaVuSans-61"/>
      <use x="124.755859" xlink:href="#DejaVuSans-6e"/>
      <use x="188.134766" xlink:href="#DejaVuSans-20"/>
      <use x="219.921875" xlink:href="#DejaVuSans-46"/>
      <use x="277.332031" xlink:href="#DejaVuSans-72"/>
      <use x="318.445312" xlink:href="#DejaVuSans-61"/>
      <use x="379.724609" xlink:href="#DejaVuSans-6e"/>
      <use x="443.103516" xlink:href="#DejaVuSans-63"/>
      <use x="498.083984" xlink:href="#DejaVuSans-69"/>
      <use x="525.867188" xlink:href="#DejaVuSans-73"/>
      <use x="577.966797" xlink:href="#DejaVuSans-63"/>
      <use x="632.947266" xlink:href="#DejaVuSans-6f"/>
     </g>
    </g>
   </g>
  </g>
 </g>
 <defs>
  <clipPath id="p5757c06866">
   <rect height="217.44" width="334.8" x="54" y="34.56"/>
  </clipPath>
 </defs>
</svg>
