<?xml version="1.0" encoding="utf-8" standalone="no"?>
<!DOCTYPE svg PUBLIC "-//W3C//DTD SVG 1.1//EN"
  "http://www.w3.org/Graphics/SVG/1.1/DTD/svg11.dtd">
<!-- Created with matplotlib (http://matplotlib.org/) -->
<svg height="288pt" version="1.1" viewBox="0 0 432 288" width="432pt" xmlns="http://www.w3.org/2000/svg" xmlns:xlink="http://www.w3.org/1999/xlink">
 <defs>
  <style type="text/css">
*{stroke-linecap:butt;stroke-linejoin:round;}
  </style>
 </defs>
 <g id="figure_1">
  <g id="patch_1">
   <path d="M 0 288 
L 432 288 
L 432 0 
L 0 0 
z
" style="fill:#ffffff;"/>
  </g>
  <g id="axes_1">
   <g id="patch_2">
    <path d="M 54 252 
L 388.8 252 
L 388.8 34.56 
L 54 34.56 
z
" style="fill:#e5e5e5;"/>
   </g>
   <g id="matplotlib.axis_1">
    <g id="xtick_1">
     <g id="line2d_1">
      <path clip-path="url(#p398363fe4a)" d="M 58.517898 252 
L 58.517898 34.56 
" style="fill:none;stroke:#ffffff;stroke-linecap:square;stroke-width:0.8;"/>
     </g>
     <g id="line2d_2">
      <defs>
       <path d="M 0 0 
L 0 3.5 
" id="m23574c36cd" style="stroke:#555555;stroke-width:0.8;"/>
      </defs>
      <g>
       <use style="fill:#555555;stroke:#555555;stroke-width:0.8;" x="58.517898" xlink:href="#m23574c36cd" y="252"/>
      </g>
     </g>
     <g id="text_1">
      <!-- 1750 -->
      <defs>
       <path d="M 12.40625 8.296875 
L 28.515625 8.296875 
L 28.515625 63.921875 
L 10.984375 60.40625 
L 10.984375 69.390625 
L 28.421875 72.90625 
L 38.28125 72.90625 
L 38.28125 8.296875 
L 54.390625 8.296875 
L 54.390625 0 
L 12.40625 0 
z
" id="DejaVuSans-31"/>
       <path d="M 8.203125 72.90625 
L 55.078125 72.90625 
L 55.078125 68.703125 
L 28.609375 0 
L 18.3125 0 
L 43.21875 64.59375 
L 8.203125 64.59375 
z
" id="DejaVuSans-37"/>
       <path d="M 10.796875 72.90625 
L 49.515625 72.90625 
L 49.515625 64.59375 
L 19.828125 64.59375 
L 19.828125 46.734375 
Q 21.96875 47.46875 24.109375 47.828125 
Q 26.265625 48.1875 28.421875 48.1875 
Q 40.625 48.1875 47.75 41.5 
Q 54.890625 34.8125 54.890625 23.390625 
Q 54.890625 11.625 47.5625 5.09375 
Q 40.234375 -1.421875 26.90625 -1.421875 
Q 22.3125 -1.421875 17.546875 -0.640625 
Q 12.796875 0.140625 7.71875 1.703125 
L 7.71875 11.625 
Q 12.109375 9.234375 16.796875 8.0625 
Q 21.484375 6.890625 26.703125 6.890625 
Q 35.15625 6.890625 40.078125 11.328125 
Q 45.015625 15.765625 45.015625 23.390625 
Q 45.015625 31 40.078125 35.4375 
Q 35.15625 39.890625 26.703125 39.890625 
Q 22.75 39.890625 18.8125 39.015625 
Q 14.890625 38.140625 10.796875 36.28125 
z
" id="DejaVuSans-35"/>
       <path d="M 31.78125 66.40625 
Q 24.171875 66.40625 20.328125 58.90625 
Q 16.5 51.421875 16.5 36.375 
Q 16.5 21.390625 20.328125 13.890625 
Q 24.171875 6.390625 31.78125 6.390625 
Q 39.453125 6.390625 43.28125 13.890625 
Q 47.125 21.390625 47.125 36.375 
Q 47.125 51.421875 43.28125 58.90625 
Q 39.453125 66.40625 31.78125 66.40625 
z
M 31.78125 74.21875 
Q 44.046875 74.21875 50.515625 64.515625 
Q 56.984375 54.828125 56.984375 36.375 
Q 56.984375 17.96875 50.515625 8.265625 
Q 44.046875 -1.421875 31.78125 -1.421875 
Q 19.53125 -1.421875 13.0625 8.265625 
Q 6.59375 17.96875 6.59375 36.375 
Q 6.59375 54.828125 13.0625 64.515625 
Q 19.53125 74.21875 31.78125 74.21875 
z
" id="DejaVuSans-30"/>
      </defs>
      <g style="fill:#555555;" transform="translate(45.792898 266.598437)scale(0.1 -0.1)">
       <use xlink:href="#DejaVuSans-31"/>
       <use x="63.623047" xlink:href="#DejaVuSans-37"/>
       <use x="127.246094" xlink:href="#DejaVuSans-35"/>
       <use x="190.869141" xlink:href="#DejaVuSans-30"/>
      </g>
     </g>
    </g>
    <g id="xtick_2">
     <g id="line2d_3">
      <path clip-path="url(#p398363fe4a)" d="M 117.96392 252 
L 117.96392 34.56 
" style="fill:none;stroke:#ffffff;stroke-linecap:square;stroke-width:0.8;"/>
     </g>
     <g id="line2d_4">
      <g>
       <use style="fill:#555555;stroke:#555555;stroke-width:0.8;" x="117.96392" xlink:href="#m23574c36cd" y="252"/>
      </g>
     </g>
     <g id="text_2">
      <!-- 1800 -->
      <defs>
       <path d="M 31.78125 34.625 
Q 24.75 34.625 20.71875 30.859375 
Q 16.703125 27.09375 16.703125 20.515625 
Q 16.703125 13.921875 20.71875 10.15625 
Q 24.75 6.390625 31.78125 6.390625 
Q 38.8125 6.390625 42.859375 10.171875 
Q 46.921875 13.96875 46.921875 20.515625 
Q 46.921875 27.09375 42.890625 30.859375 
Q 38.875 34.625 31.78125 34.625 
z
M 21.921875 38.8125 
Q 15.578125 40.375 12.03125 44.71875 
Q 8.5 49.078125 8.5 55.328125 
Q 8.5 64.0625 14.71875 69.140625 
Q 20.953125 74.21875 31.78125 74.21875 
Q 42.671875 74.21875 48.875 69.140625 
Q 55.078125 64.0625 55.078125 55.328125 
Q 55.078125 49.078125 51.53125 44.71875 
Q 48 40.375 41.703125 38.8125 
Q 48.828125 37.15625 52.796875 32.3125 
Q 56.78125 27.484375 56.78125 20.515625 
Q 56.78125 9.90625 50.3125 4.234375 
Q 43.84375 -1.421875 31.78125 -1.421875 
Q 19.734375 -1.421875 13.25 4.234375 
Q 6.78125 9.90625 6.78125 20.515625 
Q 6.78125 27.484375 10.78125 32.3125 
Q 14.796875 37.15625 21.921875 38.8125 
z
M 18.3125 54.390625 
Q 18.3125 48.734375 21.84375 45.5625 
Q 25.390625 42.390625 31.78125 42.390625 
Q 38.140625 42.390625 41.71875 45.5625 
Q 45.3125 48.734375 45.3125 54.390625 
Q 45.3125 60.0625 41.71875 63.234375 
Q 38.140625 66.40625 31.78125 66.40625 
Q 25.390625 66.40625 21.84375 63.234375 
Q 18.3125 60.0625 18.3125 54.390625 
z
" id="DejaVuSans-38"/>
      </defs>
      <g style="fill:#555555;" transform="translate(105.23892 266.598437)scale(0.1 -0.1)">
       <use xlink:href="#DejaVuSans-31"/>
       <use x="63.623047" xlink:href="#DejaVuSans-38"/>
       <use x="127.246094" xlink:href="#DejaVuSans-30"/>
       <use x="190.869141" xlink:href="#DejaVuSans-30"/>
      </g>
     </g>
    </g>
    <g id="xtick_3">
     <g id="line2d_5">
      <path clip-path="url(#p398363fe4a)" d="M 177.409943 252 
L 177.409943 34.56 
" style="fill:none;stroke:#ffffff;stroke-linecap:square;stroke-width:0.8;"/>
     </g>
     <g id="line2d_6">
      <g>
       <use style="fill:#555555;stroke:#555555;stroke-width:0.8;" x="177.409943" xlink:href="#m23574c36cd" y="252"/>
      </g>
     </g>
     <g id="text_3">
      <!-- 1850 -->
      <g style="fill:#555555;" transform="translate(164.684943 266.598437)scale(0.1 -0.1)">
       <use xlink:href="#DejaVuSans-31"/>
       <use x="63.623047" xlink:href="#DejaVuSans-38"/>
       <use x="127.246094" xlink:href="#DejaVuSans-35"/>
       <use x="190.869141" xlink:href="#DejaVuSans-30"/>
      </g>
     </g>
    </g>
    <g id="xtick_4">
     <g id="line2d_7">
      <path clip-path="url(#p398363fe4a)" d="M 236.855966 252 
L 236.855966 34.56 
" style="fill:none;stroke:#ffffff;stroke-linecap:square;stroke-width:0.8;"/>
     </g>
     <g id="line2d_8">
      <g>
       <use style="fill:#555555;stroke:#555555;stroke-width:0.8;" x="236.855966" xlink:href="#m23574c36cd" y="252"/>
      </g>
     </g>
     <g id="text_4">
      <!-- 1900 -->
      <defs>
       <path d="M 10.984375 1.515625 
L 10.984375 10.5 
Q 14.703125 8.734375 18.5 7.8125 
Q 22.3125 6.890625 25.984375 6.890625 
Q 35.75 6.890625 40.890625 13.453125 
Q 46.046875 20.015625 46.78125 33.40625 
Q 43.953125 29.203125 39.59375 26.953125 
Q 35.25 24.703125 29.984375 24.703125 
Q 19.046875 24.703125 12.671875 31.3125 
Q 6.296875 37.9375 6.296875 49.421875 
Q 6.296875 60.640625 12.9375 67.421875 
Q 19.578125 74.21875 30.609375 74.21875 
Q 43.265625 74.21875 49.921875 64.515625 
Q 56.59375 54.828125 56.59375 36.375 
Q 56.59375 19.140625 48.40625 8.859375 
Q 40.234375 -1.421875 26.421875 -1.421875 
Q 22.703125 -1.421875 18.890625 -0.6875 
Q 15.09375 0.046875 10.984375 1.515625 
z
M 30.609375 32.421875 
Q 37.25 32.421875 41.125 36.953125 
Q 45.015625 41.5 45.015625 49.421875 
Q 45.015625 57.28125 41.125 61.84375 
Q 37.25 66.40625 30.609375 66.40625 
Q 23.96875 66.40625 20.09375 61.84375 
Q 16.21875 57.28125 16.21875 49.421875 
Q 16.21875 41.5 20.09375 36.953125 
Q 23.96875 32.421875 30.609375 32.421875 
z
" id="DejaVuSans-39"/>
      </defs>
      <g style="fill:#555555;" transform="translate(224.130966 266.598437)scale(0.1 -0.1)">
       <use xlink:href="#DejaVuSans-31"/>
       <use x="63.623047" xlink:href="#DejaVuSans-39"/>
       <use x="127.246094" xlink:href="#DejaVuSans-30"/>
       <use x="190.869141" xlink:href="#DejaVuSans-30"/>
      </g>
     </g>
    </g>
    <g id="xtick_5">
     <g id="line2d_9">
      <path clip-path="url(#p398363fe4a)" d="M 296.301989 252 
L 296.301989 34.56 
" style="fill:none;stroke:#ffffff;stroke-linecap:square;stroke-width:0.8;"/>
     </g>
     <g id="line2d_10">
      <g>
       <use style="fill:#555555;stroke:#555555;stroke-width:0.8;" x="296.301989" xlink:href="#m23574c36cd" y="252"/>
      </g>
     </g>
     <g id="text_5">
      <!-- 1950 -->
      <g style="fill:#555555;" transform="translate(283.576989 266.598437)scale(0.1 -0.1)">
       <use xlink:href="#DejaVuSans-31"/>
       <use x="63.623047" xlink:href="#DejaVuSans-39"/>
       <use x="127.246094" xlink:href="#DejaVuSans-35"/>
       <use x="190.869141" xlink:href="#DejaVuSans-30"/>
      </g>
     </g>
    </g>
    <g id="xtick_6">
     <g id="line2d_11">
      <path clip-path="url(#p398363fe4a)" d="M 355.748011 252 
L 355.748011 34.56 
" style="fill:none;stroke:#ffffff;stroke-linecap:square;stroke-width:0.8;"/>
     </g>
     <g id="line2d_12">
      <g>
       <use style="fill:#555555;stroke:#555555;stroke-width:0.8;" x="355.748011" xlink:href="#m23574c36cd" y="252"/>
      </g>
     </g>
     <g id="text_6">
      <!-- 2000 -->
      <defs>
       <path d="M 19.1875 8.296875 
L 53.609375 8.296875 
L 53.609375 0 
L 7.328125 0 
L 7.328125 8.296875 
Q 12.9375 14.109375 22.625 23.890625 
Q 32.328125 33.6875 34.8125 36.53125 
Q 39.546875 41.84375 41.421875 45.53125 
Q 43.3125 49.21875 43.3125 52.78125 
Q 43.3125 58.59375 39.234375 62.25 
Q 35.15625 65.921875 28.609375 65.921875 
Q 23.96875 65.921875 18.8125 64.3125 
Q 13.671875 62.703125 7.8125 59.421875 
L 7.8125 69.390625 
Q 13.765625 71.78125 18.9375 73 
Q 24.125 74.21875 28.421875 74.21875 
Q 39.75 74.21875 46.484375 68.546875 
Q 53.21875 62.890625 53.21875 53.421875 
Q 53.21875 48.921875 51.53125 44.890625 
Q 49.859375 40.875 45.40625 35.40625 
Q 44.1875 33.984375 37.640625 27.21875 
Q 31.109375 20.453125 19.1875 8.296875 
z
" id="DejaVuSans-32"/>
      </defs>
      <g style="fill:#555555;" transform="translate(343.023011 266.598437)scale(0.1 -0.1)">
       <use xlink:href="#DejaVuSans-32"/>
       <use x="63.623047" xlink:href="#DejaVuSans-30"/>
       <use x="127.246094" xlink:href="#DejaVuSans-30"/>
       <use x="190.869141" xlink:href="#DejaVuSans-30"/>
      </g>
     </g>
    </g>
    <g id="text_7">
     <!-- Year -->
     <defs>
      <path d="M -0.203125 72.90625 
L 10.40625 72.90625 
L 30.609375 42.921875 
L 50.6875 72.90625 
L 61.28125 72.90625 
L 35.5 34.71875 
L 35.5 0 
L 25.59375 0 
L 25.59375 34.71875 
z
" id="DejaVuSans-59"/>
      <path d="M 56.203125 29.59375 
L 56.203125 25.203125 
L 14.890625 25.203125 
Q 15.484375 15.921875 20.484375 11.0625 
Q 25.484375 6.203125 34.421875 6.203125 
Q 39.59375 6.203125 44.453125 7.46875 
Q 49.3125 8.734375 54.109375 11.28125 
L 54.109375 2.78125 
Q 49.265625 0.734375 44.1875 -0.34375 
Q 39.109375 -1.421875 33.890625 -1.421875 
Q 20.796875 -1.421875 13.15625 6.1875 
Q 5.515625 13.8125 5.515625 26.8125 
Q 5.515625 40.234375 12.765625 48.109375 
Q 20.015625 56 32.328125 56 
Q 43.359375 56 49.78125 48.890625 
Q 56.203125 41.796875 56.203125 29.59375 
z
M 47.21875 32.234375 
Q 47.125 39.59375 43.09375 43.984375 
Q 39.0625 48.390625 32.421875 48.390625 
Q 24.90625 48.390625 20.390625 44.140625 
Q 15.875 39.890625 15.1875 32.171875 
z
" id="DejaVuSans-65"/>
      <path d="M 34.28125 27.484375 
Q 23.390625 27.484375 19.1875 25 
Q 14.984375 22.515625 14.984375 16.5 
Q 14.984375 11.71875 18.140625 8.90625 
Q 21.296875 6.109375 26.703125 6.109375 
Q 34.1875 6.109375 38.703125 11.40625 
Q 43.21875 16.703125 43.21875 25.484375 
L 43.21875 27.484375 
z
M 52.203125 31.203125 
L 52.203125 0 
L 43.21875 0 
L 43.21875 8.296875 
Q 40.140625 3.328125 35.546875 0.953125 
Q 30.953125 -1.421875 24.3125 -1.421875 
Q 15.921875 -1.421875 10.953125 3.296875 
Q 6 8.015625 6 15.921875 
Q 6 25.140625 12.171875 29.828125 
Q 18.359375 34.515625 30.609375 34.515625 
L 43.21875 34.515625 
L 43.21875 35.40625 
Q 43.21875 41.609375 39.140625 45 
Q 35.0625 48.390625 27.6875 48.390625 
Q 23 48.390625 18.546875 47.265625 
Q 14.109375 46.140625 10.015625 43.890625 
L 10.015625 52.203125 
Q 14.9375 54.109375 19.578125 55.046875 
Q 24.21875 56 28.609375 56 
Q 40.484375 56 46.34375 49.84375 
Q 52.203125 43.703125 52.203125 31.203125 
z
" id="DejaVuSans-61"/>
      <path d="M 41.109375 46.296875 
Q 39.59375 47.171875 37.8125 47.578125 
Q 36.03125 48 33.890625 48 
Q 26.265625 48 22.1875 43.046875 
Q 18.109375 38.09375 18.109375 28.8125 
L 18.109375 0 
L 9.078125 0 
L 9.078125 54.6875 
L 18.109375 54.6875 
L 18.109375 46.1875 
Q 20.953125 51.171875 25.484375 53.578125 
Q 30.03125 56 36.53125 56 
Q 37.453125 56 38.578125 55.875 
Q 39.703125 55.765625 41.0625 55.515625 
z
" id="DejaVuSans-72"/>
     </defs>
     <g style="fill:#555555;" transform="translate(207.912188 281.79625)scale(0.12 -0.12)">
      <use xlink:href="#DejaVuSans-59"/>
      <use x="60.880859" xlink:href="#DejaVuSans-65"/>
      <use x="122.404297" xlink:href="#DejaVuSans-61"/>
      <use x="183.683594" xlink:href="#DejaVuSans-72"/>
     </g>
    </g>
   </g>
   <g id="matplotlib.axis_2">
    <g id="ytick_1">
     <g id="line2d_13">
      <path clip-path="url(#p398363fe4a)" d="M 54 223.395445 
L 388.8 223.395445 
" style="fill:none;stroke:#ffffff;stroke-linecap:square;stroke-width:0.8;"/>
     </g>
     <g id="line2d_14">
      <defs>
       <path d="M 0 0 
L -3.5 0 
" id="m6ebaf5d8c0" style="stroke:#555555;stroke-width:0.8;"/>
      </defs>
      <g>
       <use style="fill:#555555;stroke:#555555;stroke-width:0.8;" x="54" xlink:href="#m6ebaf5d8c0" y="223.395445"/>
      </g>
     </g>
     <g id="text_8">
      <!-- 7.5 -->
      <defs>
       <path d="M 10.6875 12.40625 
L 21 12.40625 
L 21 0 
L 10.6875 0 
z
" id="DejaVuSans-2e"/>
      </defs>
      <g style="fill:#555555;" transform="translate(31.096875 227.194664)scale(0.1 -0.1)">
       <use xlink:href="#DejaVuSans-37"/>
       <use x="63.623047" xlink:href="#DejaVuSans-2e"/>
       <use x="95.410156" xlink:href="#DejaVuSans-35"/>
      </g>
     </g>
    </g>
    <g id="ytick_2">
     <g id="line2d_15">
      <path clip-path="url(#p398363fe4a)" d="M 54 191.878748 
L 388.8 191.878748 
" style="fill:none;stroke:#ffffff;stroke-linecap:square;stroke-width:0.8;"/>
     </g>
     <g id="line2d_16">
      <g>
       <use style="fill:#555555;stroke:#555555;stroke-width:0.8;" x="54" xlink:href="#m6ebaf5d8c0" y="191.878748"/>
      </g>
     </g>
     <g id="text_9">
      <!-- 8.0 -->
      <g style="fill:#555555;" transform="translate(31.096875 195.677966)scale(0.1 -0.1)">
       <use xlink:href="#DejaVuSans-38"/>
       <use x="63.623047" xlink:href="#DejaVuSans-2e"/>
       <use x="95.410156" xlink:href="#DejaVuSans-30"/>
      </g>
     </g>
    </g>
    <g id="ytick_3">
     <g id="line2d_17">
      <path clip-path="url(#p398363fe4a)" d="M 54 160.36205 
L 388.8 160.36205 
" style="fill:none;stroke:#ffffff;stroke-linecap:square;stroke-width:0.8;"/>
     </g>
     <g id="line2d_18">
      <g>
       <use style="fill:#555555;stroke:#555555;stroke-width:0.8;" x="54" xlink:href="#m6ebaf5d8c0" y="160.36205"/>
      </g>
     </g>
     <g id="text_10">
      <!-- 8.5 -->
      <g style="fill:#555555;" transform="translate(31.096875 164.161269)scale(0.1 -0.1)">
       <use xlink:href="#DejaVuSans-38"/>
       <use x="63.623047" xlink:href="#DejaVuSans-2e"/>
       <use x="95.410156" xlink:href="#DejaVuSans-35"/>
      </g>
     </g>
    </g>
    <g id="ytick_4">
     <g id="line2d_19">
      <path clip-path="url(#p398363fe4a)" d="M 54 128.845353 
L 388.8 128.845353 
" style="fill:none;stroke:#ffffff;stroke-linecap:square;stroke-width:0.8;"/>
     </g>
     <g id="line2d_20">
      <g>
       <use style="fill:#555555;stroke:#555555;stroke-width:0.8;" x="54" xlink:href="#m6ebaf5d8c0" y="128.845353"/>
      </g>
     </g>
     <g id="text_11">
      <!-- 9.0 -->
      <g style="fill:#555555;" transform="translate(31.096875 132.644571)scale(0.1 -0.1)">
       <use xlink:href="#DejaVuSans-39"/>
       <use x="63.623047" xlink:href="#DejaVuSans-2e"/>
       <use x="95.410156" xlink:href="#DejaVuSans-30"/>
      </g>
     </g>
    </g>
    <g id="ytick_5">
     <g id="line2d_21">
      <path clip-path="url(#p398363fe4a)" d="M 54 97.328655 
L 388.8 97.328655 
" style="fill:none;stroke:#ffffff;stroke-linecap:square;stroke-width:0.8;"/>
     </g>
     <g id="line2d_22">
      <g>
       <use style="fill:#555555;stroke:#555555;stroke-width:0.8;" x="54" xlink:href="#m6ebaf5d8c0" y="97.328655"/>
      </g>
     </g>
     <g id="text_12">
      <!-- 9.5 -->
      <g style="fill:#555555;" transform="translate(31.096875 101.127874)scale(0.1 -0.1)">
       <use xlink:href="#DejaVuSans-39"/>
       <use x="63.623047" xlink:href="#DejaVuSans-2e"/>
       <use x="95.410156" xlink:href="#DejaVuSans-35"/>
      </g>
     </g>
    </g>
    <g id="ytick_6">
     <g id="line2d_23">
      <path clip-path="url(#p398363fe4a)" d="M 54 65.811957 
L 388.8 65.811957 
" style="fill:none;stroke:#ffffff;stroke-linecap:square;stroke-width:0.8;"/>
     </g>
     <g id="line2d_24">
      <g>
       <use style="fill:#555555;stroke:#555555;stroke-width:0.8;" x="54" xlink:href="#m6ebaf5d8c0" y="65.811957"/>
      </g>
     </g>
     <g id="text_13">
      <!-- 10.0 -->
      <g style="fill:#555555;" transform="translate(24.734375 69.611176)scale(0.1 -0.1)">
       <use xlink:href="#DejaVuSans-31"/>
       <use x="63.623047" xlink:href="#DejaVuSans-30"/>
       <use x="127.246094" xlink:href="#DejaVuSans-2e"/>
       <use x="159.033203" xlink:href="#DejaVuSans-30"/>
      </g>
     </g>
    </g>
    <g id="ytick_7">
     <g id="line2d_25">
      <path clip-path="url(#p398363fe4a)" d="M 54 34.29526 
L 388.8 34.29526 
" style="fill:none;stroke:#ffffff;stroke-linecap:square;stroke-width:0.8;"/>
     </g>
     <g id="line2d_26">
      <g>
       <use style="fill:#555555;stroke:#555555;stroke-width:0.8;" x="54" xlink:href="#m6ebaf5d8c0" y="34.29526"/>
      </g>
     </g>
     <g id="text_14">
      <!-- 10.5 -->
      <g style="fill:#555555;" transform="translate(24.734375 38.094478)scale(0.1 -0.1)">
       <use xlink:href="#DejaVuSans-31"/>
       <use x="63.623047" xlink:href="#DejaVuSans-30"/>
       <use x="127.246094" xlink:href="#DejaVuSans-2e"/>
       <use x="159.033203" xlink:href="#DejaVuSans-35"/>
      </g>
     </g>
    </g>
    <g id="text_15">
     <!-- Temperature in °C -->
     <defs>
      <path d="M -0.296875 72.90625 
L 61.375 72.90625 
L 61.375 64.59375 
L 35.5 64.59375 
L 35.5 0 
L 25.59375 0 
L 25.59375 64.59375 
L -0.296875 64.59375 
z
" id="DejaVuSans-54"/>
      <path d="M 52 44.1875 
Q 55.375 50.25 60.0625 53.125 
Q 64.75 56 71.09375 56 
Q 79.640625 56 84.28125 50.015625 
Q 88.921875 44.046875 88.921875 33.015625 
L 88.921875 0 
L 79.890625 0 
L 79.890625 32.71875 
Q 79.890625 40.578125 77.09375 44.375 
Q 74.3125 48.1875 68.609375 48.1875 
Q 61.625 48.1875 57.5625 43.546875 
Q 53.515625 38.921875 53.515625 30.90625 
L 53.515625 0 
L 44.484375 0 
L 44.484375 32.71875 
Q 44.484375 40.625 41.703125 44.40625 
Q 38.921875 48.1875 33.109375 48.1875 
Q 26.21875 48.1875 22.15625 43.53125 
Q 18.109375 38.875 18.109375 30.90625 
L 18.109375 0 
L 9.078125 0 
L 9.078125 54.6875 
L 18.109375 54.6875 
L 18.109375 46.1875 
Q 21.1875 51.21875 25.484375 53.609375 
Q 29.78125 56 35.6875 56 
Q 41.65625 56 45.828125 52.96875 
Q 50 49.953125 52 44.1875 
z
" id="DejaVuSans-6d"/>
      <path d="M 18.109375 8.203125 
L 18.109375 -20.796875 
L 9.078125 -20.796875 
L 9.078125 54.6875 
L 18.109375 54.6875 
L 18.109375 46.390625 
Q 20.953125 51.265625 25.265625 53.625 
Q 29.59375 56 35.59375 56 
Q 45.5625 56 51.78125 48.09375 
Q 58.015625 40.1875 58.015625 27.296875 
Q 58.015625 14.40625 51.78125 6.484375 
Q 45.5625 -1.421875 35.59375 -1.421875 
Q 29.59375 -1.421875 25.265625 0.953125 
Q 20.953125 3.328125 18.109375 8.203125 
z
M 48.6875 27.296875 
Q 48.6875 37.203125 44.609375 42.84375 
Q 40.53125 48.484375 33.40625 48.484375 
Q 26.265625 48.484375 22.1875 42.84375 
Q 18.109375 37.203125 18.109375 27.296875 
Q 18.109375 17.390625 22.1875 11.75 
Q 26.265625 6.109375 33.40625 6.109375 
Q 40.53125 6.109375 44.609375 11.75 
Q 48.6875 17.390625 48.6875 27.296875 
z
" id="DejaVuSans-70"/>
      <path d="M 18.3125 70.21875 
L 18.3125 54.6875 
L 36.8125 54.6875 
L 36.8125 47.703125 
L 18.3125 47.703125 
L 18.3125 18.015625 
Q 18.3125 11.328125 20.140625 9.421875 
Q 21.96875 7.515625 27.59375 7.515625 
L 36.8125 7.515625 
L 36.8125 0 
L 27.59375 0 
Q 17.1875 0 13.234375 3.875 
Q 9.28125 7.765625 9.28125 18.015625 
L 9.28125 47.703125 
L 2.6875 47.703125 
L 2.6875 54.6875 
L 9.28125 54.6875 
L 9.28125 70.21875 
z
" id="DejaVuSans-74"/>
      <path d="M 8.5 21.578125 
L 8.5 54.6875 
L 17.484375 54.6875 
L 17.484375 21.921875 
Q 17.484375 14.15625 20.5 10.265625 
Q 23.53125 6.390625 29.59375 6.390625 
Q 36.859375 6.390625 41.078125 11.03125 
Q 45.3125 15.671875 45.3125 23.6875 
L 45.3125 54.6875 
L 54.296875 54.6875 
L 54.296875 0 
L 45.3125 0 
L 45.3125 8.40625 
Q 42.046875 3.421875 37.71875 1 
Q 33.40625 -1.421875 27.6875 -1.421875 
Q 18.265625 -1.421875 13.375 4.4375 
Q 8.5 10.296875 8.5 21.578125 
z
M 31.109375 56 
z
" id="DejaVuSans-75"/>
      <path id="DejaVuSans-20"/>
      <path d="M 9.421875 54.6875 
L 18.40625 54.6875 
L 18.40625 0 
L 9.421875 0 
z
M 9.421875 75.984375 
L 18.40625 75.984375 
L 18.40625 64.59375 
L 9.421875 64.59375 
z
" id="DejaVuSans-69"/>
      <path d="M 54.890625 33.015625 
L 54.890625 0 
L 45.90625 0 
L 45.90625 32.71875 
Q 45.90625 40.484375 42.875 44.328125 
Q 39.84375 48.1875 33.796875 48.1875 
Q 26.515625 48.1875 22.3125 43.546875 
Q 18.109375 38.921875 18.109375 30.90625 
L 18.109375 0 
L 9.078125 0 
L 9.078125 54.6875 
L 18.109375 54.6875 
L 18.109375 46.1875 
Q 21.34375 51.125 25.703125 53.5625 
Q 30.078125 56 35.796875 56 
Q 45.21875 56 50.046875 50.171875 
Q 54.890625 44.34375 54.890625 33.015625 
z
" id="DejaVuSans-6e"/>
      <path d="M 25 67.921875 
Q 21.09375 67.921875 18.40625 65.203125 
Q 15.71875 62.5 15.71875 58.59375 
Q 15.71875 54.734375 18.40625 52.078125 
Q 21.09375 49.421875 25 49.421875 
Q 28.90625 49.421875 31.59375 52.078125 
Q 34.28125 54.734375 34.28125 58.59375 
Q 34.28125 62.453125 31.5625 65.1875 
Q 28.859375 67.921875 25 67.921875 
z
M 25 74.21875 
Q 28.125 74.21875 31 73.015625 
Q 33.890625 71.828125 35.984375 69.578125 
Q 38.234375 67.390625 39.359375 64.59375 
Q 40.484375 61.8125 40.484375 58.59375 
Q 40.484375 52.15625 35.96875 47.6875 
Q 31.453125 43.21875 24.90625 43.21875 
Q 18.3125 43.21875 13.90625 47.609375 
Q 9.515625 52 9.515625 58.59375 
Q 9.515625 65.140625 14 69.671875 
Q 18.5 74.21875 25 74.21875 
z
" id="DejaVuSans-b0"/>
      <path d="M 64.40625 67.28125 
L 64.40625 56.890625 
Q 59.421875 61.53125 53.78125 63.8125 
Q 48.140625 66.109375 41.796875 66.109375 
Q 29.296875 66.109375 22.65625 58.46875 
Q 16.015625 50.828125 16.015625 36.375 
Q 16.015625 21.96875 22.65625 14.328125 
Q 29.296875 6.6875 41.796875 6.6875 
Q 48.140625 6.6875 53.78125 8.984375 
Q 59.421875 11.28125 64.40625 15.921875 
L 64.40625 5.609375 
Q 59.234375 2.09375 53.4375 0.328125 
Q 47.65625 -1.421875 41.21875 -1.421875 
Q 24.65625 -1.421875 15.125 8.703125 
Q 5.609375 18.84375 5.609375 36.375 
Q 5.609375 53.953125 15.125 64.078125 
Q 24.65625 74.21875 41.21875 74.21875 
Q 47.75 74.21875 53.53125 72.484375 
Q 59.328125 70.75 64.40625 67.28125 
z
" id="DejaVuSans-43"/>
     </defs>
     <g style="fill:#555555;" transform="translate(18.23875 198.893438)rotate(-90)scale(0.12 -0.12)">
      <use xlink:href="#DejaVuSans-54"/>
      <use x="60.818359" xlink:href="#DejaVuSans-65"/>
      <use x="122.341797" xlink:href="#DejaVuSans-6d"/>
      <use x="219.753906" xlink:href="#DejaVuSans-70"/>
      <use x="283.230469" xlink:href="#DejaVuSans-65"/>
      <use x="344.753906" xlink:href="#DejaVuSans-72"/>
      <use x="385.867188" xlink:href="#DejaVuSans-61"/>
      <use x="447.146484" xlink:href="#DejaVuSans-74"/>
      <use x="486.355469" xlink:href="#DejaVuSans-75"/>
      <use x="549.734375" xlink:href="#DejaVuSans-72"/>
      <use x="590.816406" xlink:href="#DejaVuSans-65"/>
      <use x="652.339844" xlink:href="#DejaVuSans-20"/>
      <use x="684.126953" xlink:href="#DejaVuSans-69"/>
      <use x="711.910156" xlink:href="#DejaVuSans-6e"/>
      <use x="775.289062" xlink:href="#DejaVuSans-20"/>
      <use x="807.076172" xlink:href="#DejaVuSans-b0"/>
      <use x="857.076172" xlink:href="#DejaVuSans-43"/>
     </g>
    </g>
   </g>
   <g id="line2d_27">
    <path clip-path="url(#p398363fe4a)" d="M 69.218182 189.987746 
L 70.407102 199.631855 
L 71.596023 194.652217 
L 72.784943 176.813766 
L 73.973864 182.423738 
L 75.162784 182.864972 
L 76.351705 183.55834 
L 77.540625 186.331809 
L 78.729545 191.374481 
L 79.918466 191.122347 
L 81.107386 193.013349 
L 82.296307 189.861679 
L 83.485227 195.660751 
L 84.674148 198.308154 
L 85.863068 193.76975 
L 87.051989 191.437514 
L 88.240909 185.575408 
L 89.42983 186.268776 
L 90.61875 186.016642 
L 91.80767 174.922764 
L 92.996591 166.791456 
L 94.185511 155.823646 
L 95.374432 154.247811 
L 96.563352 156.075779 
L 97.752273 159.479583 
L 98.941193 165.215622 
L 100.130114 176.687699 
L 101.319034 176.939833 
L 102.507955 178.389601 
L 103.696875 178.956902 
L 104.885795 183.054072 
L 106.074716 192.193915 
L 107.263636 191.374481 
L 108.452557 190.176846 
L 109.641477 186.710009 
L 110.830398 182.486772 
L 112.019318 176.246466 
L 113.208239 176.183432 
L 114.397159 173.157829 
L 115.58608 171.771095 
L 116.775 170.636494 
L 117.96392 167.484824 
L 119.152841 165.215622 
L 120.341761 162.126985 
L 121.530682 160.425083 
L 122.719602 158.471048 
L 123.908523 157.147347 
L 125.097443 156.138813 
L 126.286364 157.588581 
L 127.475284 164.144054 
L 129.853125 182.991039 
L 131.042045 193.895816 
L 132.230966 203.539926 
L 133.419886 208.330464 
L 135.797727 224.530046 
L 136.986648 233.922022 
L 138.175568 242.116364 
L 139.364489 240.855696 
L 140.553409 239.027727 
L 141.74233 234.61539 
L 144.12017 219.676475 
L 145.309091 219.802542 
L 146.498011 213.751336 
L 147.686932 206.502495 
L 148.875852 197.551753 
L 150.064773 186.016642 
L 151.253693 183.873506 
L 152.442614 180.280603 
L 153.631534 174.607597 
L 154.820455 177.4441 
L 156.009375 182.108571 
L 157.198295 180.280603 
L 158.387216 182.801939 
L 159.576136 189.105278 
L 160.765057 193.265482 
L 161.953977 202.279258 
L 163.142898 206.439462 
L 164.331818 208.393497 
L 165.520739 212.931902 
L 166.709659 212.616735 
L 167.89858 209.023831 
L 169.0875 208.015297 
L 170.27642 211.166967 
L 171.465341 208.26743 
L 172.654261 202.909592 
L 173.843182 198.434221 
L 175.032102 195.471651 
L 176.221023 193.265482 
L 177.409943 192.635148 
L 178.598864 189.546512 
L 179.787784 189.042245 
L 180.976705 189.861679 
L 182.165625 186.331809 
L 183.354545 184.692941 
L 184.543466 188.159777 
L 185.732386 190.239879 
L 186.921307 189.483479 
L 188.110227 187.781577 
L 189.299148 187.403377 
L 190.488068 189.483479 
L 191.676989 192.887282 
L 192.865909 192.446048 
L 194.05483 193.895816 
L 195.24375 193.454583 
L 196.43267 191.626614 
L 197.621591 187.340343 
L 198.810511 186.394842 
L 199.999432 185.260241 
L 201.188352 183.74744 
L 202.377273 182.045538 
L 203.566193 178.074434 
L 204.755114 176.561633 
L 205.944034 173.72513 
L 207.132955 175.742199 
L 208.321875 177.0659 
L 209.510795 176.435566 
L 210.699716 172.779629 
L 211.888636 174.418497 
L 213.077557 174.922764 
L 214.266477 173.977263 
L 215.455398 174.355464 
L 216.644318 176.687699 
L 217.833239 180.847904 
L 219.022159 180.469703 
L 220.21108 181.289137 
L 221.4 185.260241 
L 222.58892 189.924712 
L 223.777841 188.979212 
L 224.966761 189.924712 
L 226.155682 191.500547 
L 227.344602 191.878748 
L 228.533523 191.374481 
L 229.722443 188.916178 
L 230.911364 187.46641 
L 232.100284 185.827542 
L 233.289205 183.432273 
L 235.667045 182.360705 
L 238.044886 175.742199 
L 239.233807 174.29243 
L 240.422727 173.283896 
L 241.611648 173.72513 
L 242.800568 173.220863 
L 243.989489 172.149295 
L 245.178409 174.29243 
L 246.36733 174.229397 
L 247.55625 175.616132 
L 248.74517 177.381067 
L 249.934091 179.650269 
L 251.123011 180.469703 
L 252.311932 179.965436 
L 253.500852 176.813766 
L 254.689773 174.544564 
L 255.878693 175.490065 
L 257.067614 175.048831 
L 258.256534 175.427032 
L 259.445455 174.166364 
L 260.634375 173.283896 
L 261.823295 170.825594 
L 263.012216 169.312792 
L 264.201136 168.556391 
L 265.390057 169.060659 
L 266.578977 169.438859 
L 270.145739 159.98385 
L 271.334659 160.866317 
L 272.52358 159.164416 
L 273.7125 158.218915 
L 274.90142 156.327913 
L 276.090341 156.83218 
L 277.279261 156.075779 
L 278.468182 156.138813 
L 279.657102 157.273414 
L 280.846023 156.138813 
L 282.034943 154.689045 
L 283.223864 151.411308 
L 284.412784 150.591874 
L 285.601705 150.276707 
L 286.790625 150.15064 
L 287.979545 147.503237 
L 289.168466 146.116503 
L 290.357386 145.738302 
L 291.546307 144.918868 
L 292.735227 144.288534 
L 293.924148 144.981902 
L 295.113068 146.053469 
L 296.301989 148.511772 
L 297.490909 149.394239 
L 298.67983 149.96154 
L 299.86875 149.268173 
L 301.05767 151.096141 
L 302.246591 150.780974 
L 303.435511 153.30231 
L 304.624432 153.743544 
L 305.813352 153.617477 
L 307.002273 152.735009 
L 308.191193 151.411308 
L 309.380114 150.33974 
L 310.569034 149.646373 
L 311.757955 149.709406 
L 312.946875 150.654907 
L 314.135795 151.285241 
L 315.324716 149.268173 
L 316.513636 149.457273 
L 317.702557 151.033108 
L 318.891477 151.852542 
L 320.080398 151.096141 
L 321.269318 152.356809 
L 322.458239 153.932644 
L 323.647159 153.365343 
L 324.83608 152.987143 
L 326.025 151.663442 
L 327.21392 153.239276 
L 330.780682 150.402774 
L 331.969602 148.637839 
L 333.158523 145.044935 
L 334.347443 144.162468 
L 335.536364 143.6582 
L 336.725284 142.271466 
L 337.914205 142.775733 
L 339.103125 139.75013 
L 340.292045 138.867662 
L 341.480966 135.652959 
L 342.669886 134.455325 
L 343.858807 132.87949 
L 345.047727 132.816456 
L 346.236648 131.555788 
L 347.425568 132.564323 
L 348.614489 130.358154 
L 349.803409 126.00885 
L 352.18125 123.361447 
L 353.37017 121.344378 
L 354.559091 119.012143 
L 355.748011 119.201243 
L 356.936932 117.751475 
L 359.314773 108.989833 
L 360.503693 107.224898 
L 361.692614 105.018729 
L 364.070455 98.589323 
L 365.259375 99.156623 
L 366.448295 97.769889 
L 367.637216 94.618219 
L 368.826136 93.924852 
L 370.015057 94.303052 
L 371.203977 93.798785 
L 372.392898 92.22295 
L 373.581818 91.403516 
L 373.581818 91.403516 
" style="fill:none;stroke:#e24a33;stroke-linecap:square;stroke-width:1.5;"/>
   </g>
   <g id="line2d_28">
    <path clip-path="url(#p398363fe4a)" d="M 69.218182 154.373878 
L 70.407102 159.668683 
L 71.596023 161.433618 
L 72.784943 138.174295 
L 73.973864 138.804629 
L 75.162784 136.157226 
L 76.351705 134.392291 
L 77.540625 139.119796 
L 78.729545 145.486169 
L 79.918466 146.872904 
L 81.107386 150.52884 
L 82.296307 153.617477 
L 83.485227 166.350223 
L 84.674148 162.568219 
L 85.863068 156.895213 
L 87.051989 159.731716 
L 88.240909 149.898506 
L 89.42983 153.11321 
L 90.61875 152.167709 
L 91.80767 143.343033 
L 92.996591 130.673321 
L 94.185511 128.908386 
L 95.374432 112.960937 
L 96.563352 116.238673 
L 97.752273 114.725872 
L 98.941193 119.70551 
L 100.130114 136.59846 
L 101.319034 140.884731 
L 102.507955 134.707458 
L 103.696875 141.641132 
L 104.885795 150.970074 
L 106.074716 149.016039 
L 107.263636 151.726475 
L 108.452557 149.898506 
L 109.641477 153.554443 
L 110.830398 138.741596 
L 113.208239 121.218312 
L 114.397159 116.17564 
L 115.58608 109.872301 
L 116.775 124.180881 
L 117.96392 127.269518 
L 119.152841 126.891317 
L 120.341761 125.756716 
L 121.530682 133.06859 
L 123.908523 154.058711 
L 125.097443 149.898506 
L 126.286364 153.995677 
L 127.475284 161.433618 
L 128.664205 149.205139 
L 129.853125 150.087607 
L 131.042045 148.070538 
L 132.230966 158.975315 
L 133.419886 154.941178 
L 134.608807 160.614184 
L 135.797727 153.176243 
L 136.986648 165.278655 
L 138.175568 168.430325 
L 140.553409 158.218915 
L 141.74233 162.000918 
L 142.93125 166.917523 
L 144.12017 149.898506 
L 145.309091 152.419842 
L 146.498011 138.867662 
L 147.686932 132.942523 
L 148.875852 122.85718 
L 150.064773 122.415946 
L 151.253693 122.794147 
L 152.442614 141.136865 
L 153.631534 139.75013 
L 154.820455 141.136865 
L 156.009375 151.915575 
L 157.198295 147.944471 
L 158.387216 142.964833 
L 160.765057 149.142106 
L 161.953977 154.626011 
L 163.142898 166.980557 
L 164.331818 153.68051 
L 165.520739 155.823646 
L 166.709659 155.004212 
L 167.89858 153.932644 
L 169.0875 152.104675 
L 170.27642 168.178191 
L 171.465341 173.788163 
L 172.654261 167.736957 
L 173.843182 166.980557 
L 175.032102 155.823646 
L 176.221023 159.605649 
L 177.409943 156.706113 
L 178.598864 160.235983 
L 179.787784 153.743544 
L 180.976705 164.017987 
L 182.165625 158.723182 
L 183.354545 164.08102 
L 184.543466 172.527495 
L 185.732386 165.278655 
L 186.921307 170.19526 
L 188.110227 160.299017 
L 189.299148 161.559685 
L 190.488068 159.227449 
L 191.676989 163.198553 
L 192.865909 148.953006 
L 194.05483 159.668683 
L 195.24375 148.259638 
L 196.43267 142.334499 
L 197.621591 148.511772 
L 198.810511 134.203191 
L 199.999432 137.606994 
L 201.188352 140.31743 
L 202.377273 151.600408 
L 203.566193 144.918868 
L 204.755114 148.322672 
L 205.944034 135.148692 
L 208.321875 145.486169 
L 209.510795 142.082365 
L 210.699716 147.503237 
L 211.888636 157.588581 
L 213.077557 148.070538 
L 214.266477 143.847301 
L 216.644318 152.798043 
L 217.833239 152.041642 
L 219.022159 149.331206 
L 220.21108 149.898506 
L 221.4 156.327913 
L 222.58892 167.484824 
L 223.777841 161.937885 
L 224.966761 166.539323 
L 226.155682 161.937885 
L 227.344602 168.241224 
L 228.533523 168.493358 
L 229.722443 170.00616 
L 230.911364 171.203794 
L 232.100284 171.077727 
L 233.289205 166.287189 
L 234.478125 154.878145 
L 235.667045 150.970074 
L 236.855966 145.864369 
L 238.044886 145.234035 
L 239.233807 149.331206 
L 240.422727 144.414601 
L 241.611648 143.216967 
L 242.800568 139.308896 
L 243.989489 134.644425 
L 245.178409 135.715993 
L 246.36733 142.460566 
L 247.55625 147.503237 
L 248.74517 146.43167 
L 249.934091 138.174295 
L 251.123011 132.753423 
L 252.311932 131.933989 
L 253.500852 129.72782 
L 254.689773 131.870955 
L 255.878693 131.933989 
L 257.067614 132.753423 
L 258.256534 126.00885 
L 259.445455 127.017384 
L 260.634375 126.76525 
L 261.823295 127.458618 
L 263.012216 132.060056 
L 264.201136 137.291827 
L 265.390057 144.855835 
L 266.578977 140.065297 
L 267.767898 138.363395 
L 268.956818 136.283293 
L 270.145739 139.434963 
L 271.334659 139.497996 
L 272.52358 138.804629 
L 273.7125 147.818404 
L 274.90142 138.552495 
L 276.090341 140.191364 
L 277.279261 125.126382 
L 278.468182 125.000315 
L 279.657102 126.702217 
L 280.846023 122.352913 
L 282.034943 116.995074 
L 283.223864 108.611633 
L 284.412784 123.991781 
L 285.601705 128.593219 
L 286.790625 137.606994 
L 287.979545 129.097486 
L 289.168466 137.796095 
L 290.357386 135.905093 
L 291.546307 137.039694 
L 292.735227 140.947764 
L 293.924148 139.75013 
L 295.113068 135.211725 
L 296.301989 120.524944 
L 297.490909 107.287931 
L 298.67983 102.182226 
L 299.86875 99.28269 
L 301.05767 104.955696 
L 302.246591 113.02397 
L 303.435511 122.794147 
L 304.624432 118.570909 
L 305.813352 124.306948 
L 308.191193 126.260983 
L 309.380114 125.693683 
L 310.569034 128.719286 
L 311.757955 141.388998 
L 312.946875 138.678562 
L 314.135795 138.867662 
L 315.324716 127.710751 
L 316.513636 123.802681 
L 317.702557 122.352913 
L 318.891477 131.492755 
L 320.080398 136.472393 
L 321.269318 138.174295 
L 322.458239 133.44679 
L 324.83608 119.768544 
L 326.025 108.737699 
L 327.21392 109.935334 
L 328.402841 113.339137 
L 329.591761 115.98654 
L 330.780682 115.356206 
L 331.969602 116.427774 
L 333.158523 118.696976 
L 334.347443 111.132968 
L 335.536364 105.018729 
L 336.725284 111.006902 
L 337.914205 121.218312 
L 339.103125 123.550547 
L 340.292045 132.69039 
L 341.480966 125.378516 
L 342.669886 111.574202 
L 343.858807 96.13102 
L 345.047727 94.996419 
L 346.236648 93.105417 
L 347.425568 98.589323 
L 348.614489 89.197347 
L 349.803409 81.066039 
L 350.99233 86.739045 
L 352.18125 76.401568 
L 353.37017 76.212468 
L 354.559091 77.094935 
L 355.748011 75.5191 
L 356.936932 73.438998 
L 358.125852 74.195399 
L 359.314773 69.593961 
L 360.503693 73.438998 
L 361.692614 72.36743 
L 362.881534 55.537514 
L 364.070455 48.288673 
L 365.259375 44.443636 
L 366.448295 47.721373 
L 367.637216 62.534221 
L 368.826136 57.050315 
L 370.015057 58.941317 
L 371.203977 58.62615 
L 371.203977 58.62615 
" style="fill:none;stroke:#348abd;stroke-linecap:square;stroke-width:1.5;"/>
   </g>
   <g id="patch_3">
    <path d="M 54 252 
L 54 34.56 
" style="fill:none;stroke:#ffffff;stroke-linecap:square;stroke-linejoin:miter;"/>
   </g>
   <g id="patch_4">
    <path d="M 388.8 252 
L 388.8 34.56 
" style="fill:none;stroke:#ffffff;stroke-linecap:square;stroke-linejoin:miter;"/>
   </g>
   <g id="patch_5">
    <path d="M 54 252 
L 388.8 252 
" style="fill:none;stroke:#ffffff;stroke-linecap:square;stroke-linejoin:miter;"/>
   </g>
   <g id="patch_6">
    <path d="M 54 34.56 
L 388.8 34.56 
" style="fill:none;stroke:#ffffff;stroke-linecap:square;stroke-linejoin:miter;"/>
   </g>
   <g id="text_16">
    <!-- Weather data -->
    <defs>
     <path d="M 3.328125 72.90625 
L 13.28125 72.90625 
L 28.609375 11.28125 
L 43.890625 72.90625 
L 54.984375 72.90625 
L 70.3125 11.28125 
L 85.59375 72.90625 
L 95.609375 72.90625 
L 77.296875 0 
L 64.890625 0 
L 49.515625 63.28125 
L 33.984375 0 
L 21.578125 0 
z
" id="DejaVuSans-57"/>
     <path d="M 54.890625 33.015625 
L 54.890625 0 
L 45.90625 0 
L 45.90625 32.71875 
Q 45.90625 40.484375 42.875 44.328125 
Q 39.84375 48.1875 33.796875 48.1875 
Q 26.515625 48.1875 22.3125 43.546875 
Q 18.109375 38.921875 18.109375 30.90625 
L 18.109375 0 
L 9.078125 0 
L 9.078125 75.984375 
L 18.109375 75.984375 
L 18.109375 46.1875 
Q 21.34375 51.125 25.703125 53.5625 
Q 30.078125 56 35.796875 56 
Q 45.21875 56 50.046875 50.171875 
Q 54.890625 44.34375 54.890625 33.015625 
z
" id="DejaVuSans-68"/>
     <path d="M 45.40625 46.390625 
L 45.40625 75.984375 
L 54.390625 75.984375 
L 54.390625 0 
L 45.40625 0 
L 45.40625 8.203125 
Q 42.578125 3.328125 38.25 0.953125 
Q 33.9375 -1.421875 27.875 -1.421875 
Q 17.96875 -1.421875 11.734375 6.484375 
Q 5.515625 14.40625 5.515625 27.296875 
Q 5.515625 40.1875 11.734375 48.09375 
Q 17.96875 56 27.875 56 
Q 33.9375 56 38.25 53.625 
Q 42.578125 51.265625 45.40625 46.390625 
z
M 14.796875 27.296875 
Q 14.796875 17.390625 18.875 11.75 
Q 22.953125 6.109375 30.078125 6.109375 
Q 37.203125 6.109375 41.296875 11.75 
Q 45.40625 17.390625 45.40625 27.296875 
Q 45.40625 37.203125 41.296875 42.84375 
Q 37.203125 48.484375 30.078125 48.484375 
Q 22.953125 48.484375 18.875 42.84375 
Q 14.796875 37.203125 14.796875 27.296875 
z
" id="DejaVuSans-64"/>
    </defs>
    <g transform="translate(172.162125 28.56)scale(0.144 -0.144)">
     <use xlink:href="#DejaVuSans-57"/>
     <use x="98.798828" xlink:href="#DejaVuSans-65"/>
     <use x="160.322266" xlink:href="#DejaVuSans-61"/>
     <use x="221.601562" xlink:href="#DejaVuSans-74"/>
     <use x="260.810547" xlink:href="#DejaVuSans-68"/>
     <use x="324.189453" xlink:href="#DejaVuSans-65"/>
     <use x="385.712891" xlink:href="#DejaVuSans-72"/>
     <use x="426.826172" xlink:href="#DejaVuSans-20"/>
     <use x="458.613281" xlink:href="#DejaVuSans-64"/>
     <use x="522.089844" xlink:href="#DejaVuSans-61"/>
     <use x="583.369141" xlink:href="#DejaVuSans-74"/>
     <use x="622.578125" xlink:href="#DejaVuSans-61"/>
    </g>
   </g>
   <g id="legend_1">
    <g id="patch_7">
     <path d="M 61 71.91625 
L 124.9 71.91625 
Q 126.9 71.91625 126.9 69.91625 
L 126.9 41.56 
Q 126.9 39.56 124.9 39.56 
L 61 39.56 
Q 59 39.56 59 41.56 
L 59 69.91625 
Q 59 71.91625 61 71.91625 
z
" style="fill:#e5e5e5;opacity:0.8;stroke:#cccccc;stroke-linejoin:miter;stroke-width:0.5;"/>
    </g>
    <g id="line2d_29">
     <path d="M 63 47.658437 
L 83 47.658437 
" style="fill:none;stroke:#e24a33;stroke-linecap:square;stroke-width:1.5;"/>
    </g>
    <g id="line2d_30"/>
    <g id="text_17">
     <!-- Global -->
     <defs>
      <path d="M 59.515625 10.40625 
L 59.515625 29.984375 
L 43.40625 29.984375 
L 43.40625 38.09375 
L 69.28125 38.09375 
L 69.28125 6.78125 
Q 63.578125 2.734375 56.6875 0.65625 
Q 49.8125 -1.421875 42 -1.421875 
Q 24.90625 -1.421875 15.25 8.5625 
Q 5.609375 18.5625 5.609375 36.375 
Q 5.609375 54.25 15.25 64.234375 
Q 24.90625 74.21875 42 74.21875 
Q 49.125 74.21875 55.546875 72.453125 
Q 61.96875 70.703125 67.390625 67.28125 
L 67.390625 56.78125 
Q 61.921875 61.421875 55.765625 63.765625 
Q 49.609375 66.109375 42.828125 66.109375 
Q 29.4375 66.109375 22.71875 58.640625 
Q 16.015625 51.171875 16.015625 36.375 
Q 16.015625 21.625 22.71875 14.15625 
Q 29.4375 6.6875 42.828125 6.6875 
Q 48.046875 6.6875 52.140625 7.59375 
Q 56.25 8.5 59.515625 10.40625 
z
" id="DejaVuSans-47"/>
      <path d="M 9.421875 75.984375 
L 18.40625 75.984375 
L 18.40625 0 
L 9.421875 0 
z
" id="DejaVuSans-6c"/>
      <path d="M 30.609375 48.390625 
Q 23.390625 48.390625 19.1875 42.75 
Q 14.984375 37.109375 14.984375 27.296875 
Q 14.984375 17.484375 19.15625 11.84375 
Q 23.34375 6.203125 30.609375 6.203125 
Q 37.796875 6.203125 41.984375 11.859375 
Q 46.1875 17.53125 46.1875 27.296875 
Q 46.1875 37.015625 41.984375 42.703125 
Q 37.796875 48.390625 30.609375 48.390625 
z
M 30.609375 56 
Q 42.328125 56 49.015625 48.375 
Q 55.71875 40.765625 55.71875 27.296875 
Q 55.71875 13.875 49.015625 6.21875 
Q 42.328125 -1.421875 30.609375 -1.421875 
Q 18.84375 -1.421875 12.171875 6.21875 
Q 5.515625 13.875 5.515625 27.296875 
Q 5.515625 40.765625 12.171875 48.375 
Q 18.84375 56 30.609375 56 
z
" id="DejaVuSans-6f"/>
      <path d="M 48.6875 27.296875 
Q 48.6875 37.203125 44.609375 42.84375 
Q 40.53125 48.484375 33.40625 48.484375 
Q 26.265625 48.484375 22.1875 42.84375 
Q 18.109375 37.203125 18.109375 27.296875 
Q 18.109375 17.390625 22.1875 11.75 
Q 26.265625 6.109375 33.40625 6.109375 
Q 40.53125 6.109375 44.609375 11.75 
Q 48.6875 17.390625 48.6875 27.296875 
z
M 18.109375 46.390625 
Q 20.953125 51.265625 25.265625 53.625 
Q 29.59375 56 35.59375 56 
Q 45.5625 56 51.78125 48.09375 
Q 58.015625 40.1875 58.015625 27.296875 
Q 58.015625 14.40625 51.78125 6.484375 
Q 45.5625 -1.421875 35.59375 -1.421875 
Q 29.59375 -1.421875 25.265625 0.953125 
Q 20.953125 3.328125 18.109375 8.203125 
L 18.109375 0 
L 9.078125 0 
L 9.078125 75.984375 
L 18.109375 75.984375 
z
" id="DejaVuSans-62"/>
     </defs>
     <g transform="translate(91 51.158437)scale(0.1 -0.1)">
      <use xlink:href="#DejaVuSans-47"/>
      <use x="77.490234" xlink:href="#DejaVuSans-6c"/>
      <use x="105.273438" xlink:href="#DejaVuSans-6f"/>
      <use x="166.455078" xlink:href="#DejaVuSans-62"/>
      <use x="229.931641" xlink:href="#DejaVuSans-61"/>
      <use x="291.210938" xlink:href="#DejaVuSans-6c"/>
     </g>
    </g>
    <g id="line2d_31">
     <path d="M 63 62.336562 
L 83 62.336562 
" style="fill:none;stroke:#348abd;stroke-linecap:square;stroke-width:1.5;"/>
    </g>
    <g id="line2d_32"/>
    <g id="text_18">
     <!-- Berlin -->
     <defs>
      <path d="M 19.671875 34.8125 
L 19.671875 8.109375 
L 35.5 8.109375 
Q 43.453125 8.109375 47.28125 11.40625 
Q 51.125 14.703125 51.125 21.484375 
Q 51.125 28.328125 47.28125 31.5625 
Q 43.453125 34.8125 35.5 34.8125 
z
M 19.671875 64.796875 
L 19.671875 42.828125 
L 34.28125 42.828125 
Q 41.5 42.828125 45.03125 45.53125 
Q 48.578125 48.25 48.578125 53.8125 
Q 48.578125 59.328125 45.03125 62.0625 
Q 41.5 64.796875 34.28125 64.796875 
z
M 9.8125 72.90625 
L 35.015625 72.90625 
Q 46.296875 72.90625 52.390625 68.21875 
Q 58.5 63.53125 58.5 54.890625 
Q 58.5 48.1875 55.375 44.234375 
Q 52.25 40.28125 46.1875 39.3125 
Q 53.46875 37.75 57.5 32.78125 
Q 61.53125 27.828125 61.53125 20.40625 
Q 61.53125 10.640625 54.890625 5.3125 
Q 48.25 0 35.984375 0 
L 9.8125 0 
z
" id="DejaVuSans-42"/>
     </defs>
     <g transform="translate(91 65.836562)scale(0.1 -0.1)">
      <use xlink:href="#DejaVuSans-42"/>
      <use x="68.603516" xlink:href="#DejaVuSans-65"/>
      <use x="130.126953" xlink:href="#DejaVuSans-72"/>
      <use x="171.240234" xlink:href="#DejaVuSans-6c"/>
      <use x="199.023438" xlink:href="#DejaVuSans-69"/>
      <use x="226.806641" xlink:href="#DejaVuSans-6e"/>
     </g>
    </g>
   </g>
  </g>
 </g>
 <defs>
  <clipPath id="p398363fe4a">
   <rect height="217.44" width="334.8" x="54" y="34.56"/>
  </clipPath>
 </defs>
</svg>
